<svg xmlns="http://www.w3.org/2000/svg" viewBox="0 0 233.18 105.12">
        <g>
            <polygon points="163.27 0.1 163.27 105.06 175.01 93.41 175.01 11.72 163.27 0.1" fill="#bfbebe"/>
            <polygon points="128.29 0.13 139.92 11.68 139.93 35.07 151.6 35.07 163.27 46.72 163.27 0.1 128.29 0.13"
                     fill="#3b3b3b"/>
            <polygon points="163.26 46.63 151.53 58.33 139.78 58.33 139.78 81.78 151.51 81.78 163.27 93.48 163.26 46.63"
                     fill="#3b3b3b"/>
            <polyline points="81.63 11.64 128.29 11.64 128.29 0.08 93.28 0.08 81.63 11.64" fill="#fff"/>
            <polyline points="128.25 46.73 116.59 35.02 116.64 23.31 128.29 11.64 128.25 46.73" fill="#bfbebe"/>
            <polygon points="139.92 11.64 128.29 0.08 128.29 11.64 128.25 46.73 139.93 35.03 139.92 11.64"/>
            <polyline points="93.28 11.64 128.29 11.64 116.64 23.31 104.85 23.31 104.89 35.02 93.28 46.72 93.28 11.64"/>
            <polyline points="93.28 46.72 104.89 35.02 116.59 35.02 128.25 46.73 93.28 46.72" fill="#fff"/>
            <polyline points="93.28 46.72 93.28 11.64 81.63 11.64 81.61 35.02 93.28 46.72" fill="#bfbebe"/>
            <polyline points="69.94 46.72 81.61 35.02 93.28 46.72 69.94 46.72" fill="#fff"/>
            <polyline points="81.58 93.46 69.94 93.46 69.94 46.72 81.58 46.72 81.58 93.46" fill="#bfbebe"/>
            <polyline points="81.58 46.72 81.58 93.46 93.26 81.76 93.26 58.31 116.63 58.37 128.25 46.73 81.58 46.72"/>
            <polygon points="0 0.02 0 105.12 11.63 93.47 11.63 11.63 0 0.02" fill="#bfbebe"/>
            <polygon points="11.63 11.63 0.02 0 23.32 0 11.63 11.63" fill="#fff"/>
            <polygon points="11.63 46.71 34.94 46.71 23.28 35.06 11.63 46.71" fill="#fff"/>
            <polygon points="58.29 22.62 58.29 11.68 46.62 0 46.62 11.38 23.27 34.9 34.98 46.72 58.7 23.02 58.29 22.62"
                     fill="#bfbebe"/>
            <polygon points="11.63 11.63 11.63 46.71 23.32 35 23.32 0 11.63 11.63"/>
            <polygon
                    points="34.98 46.72 11.64 46.72 11.63 46.7 11.63 46.72 11.62 46.72 11.63 46.72 11.63 93.47 0 105.12 23.31 105.12 23.31 58.41 34.98 46.72"/>
            <polygon points="58.31 11.71 58.29 23.4 34.94 46.71 46.61 46.71 69.94 23.4 69.94 0 58.31 11.71"/>
            <polygon points="58.3 11.7 46.62 0 69.94 0 58.3 11.7" fill="#fff"/>
            <polygon points="34.98 46.72 46.62 46.71 69.94 70.08 58.3 70.08 34.98 46.72" fill="#fff"/>
            <polygon
                    points="58.3 70.09 34.98 46.72 23.31 58.41 46.66 81.79 46.66 105.12 58.3 93.46 58.3 70.09 58.3 70.09"
                    fill="#bfbebe"/>
            <polygon points="69.95 70.08 58.3 70.08 58.3 93.46 46.66 105.12 69.94 105.12 69.94 105.12 69.95 70.08"/>
            <polygon points="93.26 81.76 81.58 93.46 128.25 93.46 116.59 81.79 93.26 81.76" fill="#fff"/>
            <polygon points="116.59 81.79 128.25 93.46 128.25 46.73 116.63 58.37 116.59 81.79" fill="#bfbebe"/>
            <polygon
                    points="151.6 35.03 151.6 46.73 128.25 46.73 128.25 93.46 139.9 81.78 139.9 58.34 151.6 58.34 151.6 58.32 163.27 46.72 151.6 35.03"/>
            <polygon points="139.9 81.78 128.25 93.46 151.57 93.46 151.57 81.78 139.9 81.78" fill="#fff"/>
            <polyline points="128.25 46.73 139.93 35.03 151.6 35.03 151.6 46.73 128.25 46.73" fill="#fff"/>
            <polygon points="174.92 46.74 186.52 35.01 186.52 0.06 174.92 11.66 174.92 46.74"/>
            <polygon points="174.92 11.66 163.27 0.06 186.52 0.06 174.92 11.66" fill="#fff"/>
            <polygon points="163.28 93.47 151.49 105.12 163.27 105.09 163.28 93.47" fill="#3b3b3b"/>
            <polygon
                    points="221.53 46.72 174.92 46.74 174.92 93.4 163.27 105.06 186.52 105.06 186.52 58.36 209.91 58.36 221.53 46.72"/>
            <polygon points="174.92 46.74 186.52 35.01 209.89 35.01 221.53 46.72 174.92 46.74" fill="#fff"/>
            <polygon points="221.53 11.66 221.53 46.72 209.89 35.01 209.89 0.01 221.53 11.66" fill="#bfbebe"/>
            <polygon points="221.53 46.72 209.91 58.36 209.91 105.06 221.52 93.43 221.53 46.72" fill="#bfbebe"/>
            <polygon
                    points="163.27 93.48 151.57 81.78 151.57 93.47 81.58 93.46 69.94 93.46 81.58 105.12 81.58 105.12 151.59 105.12 151.59 105.05 163.27 93.48"/>
            <polygon points="221.53 11.66 221.52 93.43 209.91 105.06 233.18 105.12 233.18 0.06 221.53 11.66"/>
            <polygon points="221.53 11.66 209.89 0.01 233.18 0.06 221.53 11.66" fill="#fff"/>
            <polygon points="46.62 0 46.62 11.65 23.3 35.01 23.32 0 46.62 0" fill="#3b3b3b"/>
            <polygon points="23.31 58.41 23.31 105.12 46.66 105.12 46.66 81.77 23.31 58.41" fill="#3b3b3b"/>
            <polygon
                    points="46.62 46.71 69.94 23.34 69.94 0 93.28 0.08 81.63 11.64 81.61 35.02 69.94 46.72 69.95 70.08 46.62 46.71"
                    fill="#3b3b3b"/>
            <polygon points="69.94 93.46 81.58 105.12 69.94 105.12 69.94 93.46" fill="#3b3b3b"/>
            <polygon points="93.26 58.31 116.63 58.37 116.59 81.79 93.26 81.76 93.26 58.31" fill="#3b3b3b"/>
            <polygon points="104.85 23.31 104.89 35.02 116.59 35.02 116.64 23.31 104.85 23.31" fill="#3b3b3b"/>
            <polygon points="186.52 0.06 186.52 35.01 209.89 35.01 209.89 0.01 186.52 0.06" fill="#3b3b3b"/>
            <polygon points="186.52 58.36 209.91 58.36 209.91 105.06 186.52 105.06 186.52 58.36" fill="#3b3b3b"/>
            <line x1="163.27" y1="105.06" x2="163.27" y2="0.66" fill="#b58e40"/>
        </g>
</svg>