<svg xmlns="http://www.w3.org/2000/svg" viewBox="0 0 234.46 15.91">
    <g fill="#fff">
        <path d="M7.87,15.67,2.8,9.45v6.22H0V1.72H2.8V8L7.87,1.72h3.38L5.5,8.63l5.91,7Z"/>
        <path d="M24.64,15.67l-1.52-1.5a6.83,6.83,0,0,1-4.74,1.74,6.54,6.54,0,0,1-2.7-.53,4.22,4.22,0,0,1-1.81-1.5,4,4,0,0,1-.64-2.25A4.18,4.18,0,0,1,14,9.15,5.54,5.54,0,0,1,16.3,7.37a5,5,0,0,1-.77-1.27,3.49,3.49,0,0,1-.24-1.3,3,3,0,0,1,.5-1.73,3.26,3.26,0,0,1,1.42-1.21,5.09,5.09,0,0,1,2.17-.44,4.53,4.53,0,0,1,2.16.48,3.13,3.13,0,0,1,1.34,1.28A3.22,3.22,0,0,1,23.26,5H20.54a1.33,1.33,0,0,0-.32-1,1.18,1.18,0,0,0-.92-.35,1.36,1.36,0,0,0-.93.33,1.1,1.1,0,0,0-.37.85,1.84,1.84,0,0,0,.3,1,8,8,0,0,0,1,1.21l3.52,3.48a.21.21,0,0,0,.06-.08s0,0,0-.08L24,8.39H27l-1.4,2.46c-.27.52-.56,1-.86,1.48l3.37,3.34Zm-3.28-3.24L17.92,9A2.69,2.69,0,0,0,16,11.47,1.93,1.93,0,0,0,16.67,13a2.61,2.61,0,0,0,1.79.61A4.18,4.18,0,0,0,21.36,12.43Z"
        />
        <path d="M41.68,1.72v14h-2.8V9.73h-6v5.94h-2.8V1.72h2.8V7.45h6V1.72Z"/>
        <path d="M50.76,5A6.6,6.6,0,0,1,53.3,2.45a7.17,7.17,0,0,1,3.61-.91A7.06,7.06,0,0,1,61,2.74a6.2,6.2,0,0,1,2.46,3.31H60.25A3.39,3.39,0,0,0,58.9,4.56a3.9,3.9,0,0,0-2-.5,4.14,4.14,0,0,0-2.17.57,3.88,3.88,0,0,0-1.48,1.6,5.38,5.38,0,0,0-.53,2.44,5.37,5.37,0,0,0,.53,2.43,3.88,3.88,0,0,0,1.48,1.62,4.14,4.14,0,0,0,2.17.57,3.9,3.9,0,0,0,2-.51,3.44,3.44,0,0,0,1.35-1.51h3.21A6.2,6.2,0,0,1,61,14.6a7.12,7.12,0,0,1-4.1,1.19,7.28,7.28,0,0,1-3.61-.91,6.71,6.71,0,0,1-2.54-2.53,7.27,7.27,0,0,1-.93-3.68A7.27,7.27,0,0,1,50.76,5Z"
        />
        <path d="M68.56,15.14a5.25,5.25,0,0,1-2-2,6,6,0,0,1-.73-3,5.91,5.91,0,0,1,.75-3,5.19,5.19,0,0,1,2.05-2,6.26,6.26,0,0,1,5.79,0,5.19,5.19,0,0,1,2,2,5.91,5.91,0,0,1,.75,3,5.82,5.82,0,0,1-.77,3,5.43,5.43,0,0,1-2.08,2,6.08,6.08,0,0,1-2.93.71A5.84,5.84,0,0,1,68.56,15.14Zm4.3-2.1a2.67,2.67,0,0,0,1.07-1.11,3.68,3.68,0,0,0,.4-1.8A3.32,3.32,0,0,0,73.5,7.7a2.75,2.75,0,0,0-2-.85,2.68,2.68,0,0,0-2,.85,3.4,3.4,0,0,0-.81,2.43,3.44,3.44,0,0,0,.79,2.43,2.61,2.61,0,0,0,2,.85A2.85,2.85,0,0,0,72.86,13Z"
        />
        <path d="M97,5.68a4.75,4.75,0,0,1,1.25,3.49v6.5h-2.8V9.55a2.78,2.78,0,0,0-.66-2A2.37,2.37,0,0,0,93,6.87a2.4,2.4,0,0,0-1.81.69,2.74,2.74,0,0,0-.67,2v6.12h-2.8V9.55a2.78,2.78,0,0,0-.66-2,2.37,2.37,0,0,0-1.8-.69,2.44,2.44,0,0,0-1.83.69,2.78,2.78,0,0,0-.67,2v6.12H79.93V4.6h2.79V5.93a3.76,3.76,0,0,1,1.39-1.09A4.3,4.3,0,0,1,86,4.44,4.76,4.76,0,0,1,88.3,5a3.89,3.89,0,0,1,1.58,1.56A4,4,0,0,1,91.45,5,4.8,4.8,0,0,1,97,5.68Z"
        />
        <path d="M118.56,5.68a4.75,4.75,0,0,1,1.25,3.49v6.5H117V9.55a2.78,2.78,0,0,0-.66-2,2.37,2.37,0,0,0-1.79-.69,2.4,2.4,0,0,0-1.81.69,2.74,2.74,0,0,0-.67,2v6.12h-2.8V9.55a2.78,2.78,0,0,0-.66-2,2.37,2.37,0,0,0-1.8-.69,2.44,2.44,0,0,0-1.83.69,2.78,2.78,0,0,0-.67,2v6.12h-2.79V4.6h2.79V5.93a3.76,3.76,0,0,1,1.39-1.09,4.3,4.3,0,0,1,1.87-.4A4.76,4.76,0,0,1,109.9,5a3.83,3.83,0,0,1,1.58,1.56A4,4,0,0,1,113.05,5a4.8,4.8,0,0,1,5.51.66Z"
        />
        <path d="M133.58,4.6V15.67h-2.82v-1.4a3.76,3.76,0,0,1-1.41,1.13,4.43,4.43,0,0,1-1.89.41,4.73,4.73,0,0,1-2.29-.55,3.9,3.9,0,0,1-1.57-1.62,5.33,5.33,0,0,1-.57-2.55V4.6h2.79v6.09a2.87,2.87,0,0,0,.66,2,2.35,2.35,0,0,0,1.8.71,2.38,2.38,0,0,0,1.82-.71,2.87,2.87,0,0,0,.66-2V4.6Z"
        />
        <path d="M146.33,5.68a4.81,4.81,0,0,1,1.21,3.49v6.5h-2.79V9.55a2.88,2.88,0,0,0-.66-2,2.35,2.35,0,0,0-1.8-.71,2.42,2.42,0,0,0-1.83.71,2.84,2.84,0,0,0-.67,2v6.12H137V4.6h2.8V6a3.89,3.89,0,0,1,1.43-1.12,4.34,4.34,0,0,1,1.91-.41A4.29,4.29,0,0,1,146.33,5.68Z"
        />
        <path d="M151.05,2.81a1.57,1.57,0,0,1-.49-1.17,1.57,1.57,0,0,1,.49-1.17,1.84,1.84,0,0,1,2.46,0A1.53,1.53,0,0,1,154,1.64a1.53,1.53,0,0,1-.49,1.17,1.84,1.84,0,0,1-2.46,0Zm2.61,1.79V15.67h-2.8V4.6Z"
        />
        <path d="M157.06,7.12a4.93,4.93,0,0,1,1.93-2,5.57,5.57,0,0,1,2.84-.71,5.45,5.45,0,0,1,3.41,1,5,5,0,0,1,1.81,2.88h-3a2.24,2.24,0,0,0-.81-1.13,2.37,2.37,0,0,0-1.41-.41,2.31,2.31,0,0,0-1.9.87,3.9,3.9,0,0,0-.7,2.47,3.86,3.86,0,0,0,.7,2.45,2.31,2.31,0,0,0,1.9.87A2.13,2.13,0,0,0,164,11.93h3a5.18,5.18,0,0,1-1.82,2.86,5.41,5.41,0,0,1-3.4,1.06,5.67,5.67,0,0,1-2.84-.71,5,5,0,0,1-1.93-2,6.17,6.17,0,0,1-.7-3A6.2,6.2,0,0,1,157.06,7.12Z"
        />
        <path d="M169.71,7.11a5,5,0,0,1,1.82-2,4.82,4.82,0,0,1,2.57-.7,4.43,4.43,0,0,1,2.17.5,4.48,4.48,0,0,1,1.49,1.25V4.6h2.81V15.67h-2.81V14.05a4.19,4.19,0,0,1-1.49,1.29,4.54,4.54,0,0,1-2.19.51,4.73,4.73,0,0,1-2.55-.72,5.13,5.13,0,0,1-1.82-2,6.6,6.6,0,0,1-.67-3A6.51,6.51,0,0,1,169.71,7.11Zm7.65,1.27a2.91,2.91,0,0,0-1.08-1.12,2.92,2.92,0,0,0-2.9,0,2.93,2.93,0,0,0-1.07,1.11,3.51,3.51,0,0,0-.41,1.73,3.62,3.62,0,0,0,.41,1.75A2.93,2.93,0,0,0,173.39,13a2.81,2.81,0,0,0,1.43.4,2.88,2.88,0,0,0,1.46-.39,2.84,2.84,0,0,0,1.08-1.12,3.68,3.68,0,0,0,.4-1.75A3.68,3.68,0,0,0,177.36,8.38Z"
        />
        <path d="M187.23,6.89v5.36a1.07,1.07,0,0,0,.27.81,1.3,1.3,0,0,0,.91.25h1.3v2.36H188q-3.54,0-3.54-3.44V6.89h-1.32V4.6h1.32V1.86h2.82V4.6h2.48V6.89Z"
        />
        <path d="M192.57,2.81a1.57,1.57,0,0,1-.49-1.17,1.57,1.57,0,0,1,.49-1.17,1.84,1.84,0,0,1,2.46,0,1.53,1.53,0,0,1,.49,1.17A1.53,1.53,0,0,1,195,2.81a1.71,1.71,0,0,1-1.23.47A1.73,1.73,0,0,1,192.57,2.81Zm2.61,1.79V15.67h-2.8V4.6Z"
        />
        <path d="M200.64,15.14a5.11,5.11,0,0,1-2-2,6,6,0,0,1-.73-3,5.91,5.91,0,0,1,.75-3,5.19,5.19,0,0,1,2-2,6.26,6.26,0,0,1,5.79,0,5.19,5.19,0,0,1,2,2,5.91,5.91,0,0,1,.75,3,5.82,5.82,0,0,1-.77,3,5.43,5.43,0,0,1-2.08,2,6.08,6.08,0,0,1-2.93.71A5.84,5.84,0,0,1,200.64,15.14Zm4.3-2.1A2.73,2.73,0,0,0,206,11.93a3.68,3.68,0,0,0,.4-1.8,3.36,3.36,0,0,0-.83-2.43,2.75,2.75,0,0,0-2-.85,2.69,2.69,0,0,0-2,.85,3.39,3.39,0,0,0-.8,2.43,3.48,3.48,0,0,0,.78,2.43,2.63,2.63,0,0,0,2,.85A2.85,2.85,0,0,0,204.94,13Z"
        />
        <path d="M221.34,5.68a4.82,4.82,0,0,1,1.22,3.49v6.5h-2.8V9.55a2.88,2.88,0,0,0-.66-2,2.35,2.35,0,0,0-1.8-.71,2.42,2.42,0,0,0-1.83.71,2.89,2.89,0,0,0-.67,2v6.12H212V4.6h2.79V6a4,4,0,0,1,1.43-1.12,4.34,4.34,0,0,1,1.91-.41A4.29,4.29,0,0,1,221.34,5.68Z"
        />
        <path d="M227.67,15.36A4.34,4.34,0,0,1,226,14a3.37,3.37,0,0,1-.69-1.86h2.82a1.51,1.51,0,0,0,.63,1.06,2.19,2.19,0,0,0,1.37.42,2.16,2.16,0,0,0,1.25-.32,1,1,0,0,0,.45-.82.87.87,0,0,0-.55-.81,10.16,10.16,0,0,0-1.75-.59,15.31,15.31,0,0,1-2-.62,3.47,3.47,0,0,1-1.36-1,2.62,2.62,0,0,1-.57-1.78,2.91,2.91,0,0,1,.53-1.68,3.61,3.61,0,0,1,1.52-1.19,5.6,5.6,0,0,1,2.33-.44,4.76,4.76,0,0,1,3.16,1,3.65,3.65,0,0,1,1.3,2.66h-2.68A1.47,1.47,0,0,0,231.14,7a2,2,0,0,0-1.31-.39,2.1,2.1,0,0,0-1.17.28.93.93,0,0,0,.15,1.63,8.15,8.15,0,0,0,1.74.59,15.27,15.27,0,0,1,2,.62,3.43,3.43,0,0,1,1.35,1,2.76,2.76,0,0,1,.58,1.77,3,3,0,0,1-.52,1.72,3.61,3.61,0,0,1-1.52,1.19,5.88,5.88,0,0,1-2.31.43A5.94,5.94,0,0,1,227.67,15.36Z"
        />
    </g>
</svg>