<?xml version="1.0" standalone="no"?>
<!DOCTYPE svg PUBLIC "-//W3C//DTD SVG 20010904//EN"
 "http://www.w3.org/TR/2001/REC-SVG-20010904/DTD/svg10.dtd">
<svg version="1.0" xmlns="http://www.w3.org/2000/svg"
 width="260.000000pt" height="260.000000pt" viewBox="0 0 260.000000 260.000000"
 preserveAspectRatio="xMidYMid meet">
<metadata>
Created by potrace 1.14, written by Peter Selinger 2001-2017
</metadata>
<g transform="translate(0.000000,260.000000) scale(0.100000,-0.100000)"
fill="#000000" stroke="none">
<path d="M1200 2593 c-36 -2 -74 -7 -85 -12 -11 -5 -54 -15 -95 -21 -41 -7
-79 -16 -85 -20 -5 -5 -30 -13 -55 -20 -25 -6 -91 -34 -148 -63 -150 -76 -165
-85 -174 -102 -5 -8 -16 -15 -25 -15 -20 0 -283 -264 -283 -285 0 -8 -4 -15
-9 -15 -5 0 -18 -16 -28 -35 -81 -155 -124 -245 -129 -272 -4 -18 -11 -33 -16
-33 -5 0 -6 -5 -3 -10 4 -6 2 -16 -3 -23 -5 -7 -15 -46 -22 -87 -6 -41 -16
-84 -22 -94 -14 -26 -14 -346 0 -372 6 -10 16 -53 22 -94 7 -41 17 -80 22 -87
5 -7 7 -17 3 -23 -3 -5 -2 -10 3 -10 5 0 12 -15 16 -32 5 -28 48 -118 129
-273 10 -19 23 -35 28 -35 5 0 9 -7 9 -15 0 -21 263 -285 283 -285 9 0 20 -7
25 -15 9 -17 24 -26 174 -102 57 -29 123 -57 148 -63 25 -7 50 -15 55 -20 6
-4 44 -13 85 -20 41 -6 84 -16 94 -22 26 -14 346 -14 372 0 10 6 53 16 94 22
41 7 80 16 85 20 6 5 30 13 55 20 25 6 91 34 148 63 150 76 165 85 174 102 5
8 16 15 25 15 20 0 283 264 283 285 0 8 4 15 9 15 5 0 18 16 28 35 81 155 124
245 129 273 4 17 11 32 16 32 5 0 6 5 3 10 -4 6 -2 16 3 23 5 7 15 46 22 87 6
41 16 84 22 94 14 26 14 346 0 372 -6 10 -16 53 -22 94 -7 41 -17 80 -22 87
-5 7 -7 17 -3 23 3 5 2 10 -3 10 -5 0 -12 15 -16 33 -5 27 -48 117 -129 272
-10 19 -23 35 -28 35 -5 0 -9 7 -9 15 0 21 -263 285 -283 285 -9 0 -20 7 -25
15 -9 17 -24 26 -174 102 -57 29 -123 57 -148 63 -25 7 -49 15 -55 20 -5 4
-44 13 -85 20 -41 6 -84 16 -95 20 -24 10 -194 18 -285 13z m-770 -983 l0
-169 115 115 115 116 0 54 0 54 100 0 100 0 0 -99 0 -99 -110 -111 c-60 -60
-110 -114 -110 -118 0 -5 50 -58 110 -118 l110 -110 0 -152 0 -153 -100 0
-100 0 0 108 0 107 -115 115 -115 115 0 -223 0 -222 -100 0 -100 0 0 480 0
480 100 0 100 0 0 -170z m1028 116 l52 -54 0 -116 0 -116 63 0 c61 0 64 -1
107 -45 l44 -45 -44 -45 c-43 -44 -46 -45 -107 -45 l-63 0 0 -123 0 -122 53 2
c50 1 54 0 104 -50 l53 -51 -47 -48 -47 -48 -310 0 -310 0 -63 62 -63 62 0
201 0 201 60 59 60 59 0 105 0 105 52 53 52 53 151 0 150 0 53 -54z m472 -116
l0 -171 113 3 112 3 3 168 2 167 100 0 100 0 0 -480 0 -480 -100 0 -100 0 0
220 0 220 -115 0 -115 0 0 -220 0 -220 -100 0 -100 0 0 480 0 480 100 0 100 0
0 -170z"/>
<path d="M1200 1513 l0 -73 55 0 55 0 0 73 0 72 -55 0 -55 0 0 -72z"/>
<path d="M1082 1140 l3 -121 113 -2 112 -2 0 123 0 122 -115 0 -116 0 3 -120z"/>
</g>
</svg>
