<svg xmlns="http://www.w3.org/2000/svg" viewBox="0 0 433 423.51">
    <g>
        <path d="M427.6,197.13V207a9.33,9.33,0,0,0-.29,1.27c-.13,1.25-.11,2.52-.33,3.75a44,44,0,0,1-4.52,13.62c-3.54,6.39-8.17,11.61-15,14.65A22.73,22.73,0,0,1,394.34,242a31.4,31.4,0,0,1-12.12-4.83c-.17.53-.33.94-.43,1.36-.85,3.59-1.44,7.26-2.57,10.75-2.68,8.3-5.73,16.48-8.42,24.78-2.1,6.48-4.49,12.78-8.47,18.41-3.58,5.07-6.88,10.35-10.67,15.27a105.82,105.82,0,0,1-10.48,11.81c-4.8,4.59-9.94,8.86-15.13,13-4.79,3.84-9.74,7.53-14.81,11s-10.5,6.74-15.83,10a94.15,94.15,0,0,1-16,7.77c-4.4,1.65-8.87,3.13-13.36,4.52-9.78,3-19.55,6.11-29.41,8.91a63.71,63.71,0,0,1-17.3,2.46,5,5,0,0,0-1.14.29h-2.56a9.27,9.27,0,0,0-1.29-.29,62.05,62.05,0,0,1-7.45-.64c-5.24-1.1-10.43-2.45-15.62-3.79l-22.82-6a98.69,98.69,0,0,1-10.12-2.85c-4.48-1.72-8.82-3.8-13.16-5.87s-8.62-4.26-12.84-6.53c-4.62-2.51-9.18-5.16-13.69-7.87a72.62,72.62,0,0,1-12.07-9.08c-4.63-4.32-9.41-8.5-13.9-13-4-4-7.86-8.22-11.54-12.54A116.12,116.12,0,0,1,71.9,297a120.7,120.7,0,0,1-8.12-14.69c-3.16-6.77-6.06-13.69-8.63-20.71a176.08,176.08,0,0,1-5-17A69.67,69.67,0,0,1,49,236.16a39.6,39.6,0,0,1-11.42,4,28.86,28.86,0,0,1-14-.64,24.34,24.34,0,0,1-11.85-8.37,46.69,46.69,0,0,1-9.44-22.66c-.16-1.16-.38-2.31-.58-3.47V197.1c.29-1.84.52-3.7.88-5.53,1.38-7.1,2.94-14.06,8.12-19.71a64.78,64.78,0,0,1,9.58-9c4.55-3.28,9.43-5.65,15.32-5.31a17.93,17.93,0,0,1,12.17,5.93,16.62,16.62,0,0,1,4,8.14c.16.73.4,1.44.68,2.41.28-2.86.41-5.42.81-7.94a69.23,69.23,0,0,1,6.66-19.73c2.57-5.19,5.37-10.28,8.21-15.34a16.21,16.21,0,0,1,3.37-4.31c2.18-1.93,5-2.37,7.88-2.47,4.74-.17,9.49-.2,14.24-.31,3.41-.07,6.83-.18,10.24-.28l9.38-.28c3.8-.1,7.6-.18,11.39-.29,2.7-.07,5.4-.18,8.1-.29.19,0,.38-.18.57-.28H135c.05.07.09.21.15.21,3.25.25,5.71,1.92,7.85,4.19.94,1,1.77,2.08,2.78,3q6.19,5.52,12.49,10.94c1.09.94,2.18,2.12,3.48,2.51a62.7,62.7,0,0,0,7.82,1.49c4.89.8,9.79,1.54,14.68,2.3,4.11.65,8.21,1.37,12.33,1.93,3.53.48,7.08.82,10.63,1.16,3.92.37,7.82,1.07,11.79.58,3.27-.39,6.58-.47,9.84-.89,5-.66,10.11-1.33,15.11-2.3,8.55-1.65,17.06-3.54,25.58-5.36a6.64,6.64,0,0,0,2.72-.94c2.12-1.71,4.09-3.6,6.12-5.42,1.32-1.2,2.69-2.36,3.95-3.63,2.41-2.42,4.72-4.94,7.15-7.34a8.74,8.74,0,0,1,2.66-1.8,14.45,14.45,0,0,1,3.06-.62h1.15a4.38,4.38,0,0,0,1,.28c3.41.12,6.83.21,10.24.3l11.24.28c3.37.09,6.73.21,10.1.28q7.62.16,15.24.28h7.46a20.56,20.56,0,0,1,4,.21c3.13.63,4.87,3,6.16,5.58q4.89,9.84,9.54,19.79c1.57,3.39,2.89,6.89,4.29,10.36,1,2.49,2,5,3.08,7.8,1.47-1.26,2.8-2.35,4.09-3.49a32.65,32.65,0,0,1,3.73-3.32c4.86-3.09,10.14-4.85,15.81-2.61a45.63,45.63,0,0,1,11.39,6.79A32,32,0,0,1,422.89,176c2.59,5.24,3.5,11,4.2,16.71C427.2,194.16,427.4,195.65,427.6,197.13Z"
              fill="#96b8b9"/>
        <path d="M330.51,209.46c-.2,1.33-.37,2.67-.61,4-.91,5.16-2.87,9.81-6.78,13.44A22.56,22.56,0,0,1,312,232.26a36.62,36.62,0,0,1-21-2,60.14,60.14,0,0,1-18.65-11.77c-4.42-4-8.86-8-12-13.16a37.43,37.43,0,0,1-5.38-14.8,21.77,21.77,0,0,1,2-12.61A25.15,25.15,0,0,1,266.3,168a30.53,30.53,0,0,1,12.62-4.52,35.07,35.07,0,0,1,15.06,1.3,57,57,0,0,1,30.69,24.1,36.08,36.08,0,0,1,5.24,13.86c.18,1.34.4,2.67.6,4Z"
              fill="#fff"/>
        <path d="M150.24,162.89c1.22.26,2.44.51,3.65.78a30.34,30.34,0,0,1,16.2,9.67,20.26,20.26,0,0,1,5.43,13.49c.13,6.76-2.24,12.68-5.54,18.37a83.47,83.47,0,0,1-10.59,14,51.16,51.16,0,0,1-24.48,15.07c-1.76.5-3.6.72-5.4,1.06H125c-.16-.09-.31-.27-.46-.27a20.77,20.77,0,0,1-10.21-3.35c-5-2.93-8.85-6.82-10.57-12.48-.64-2.12-1.06-4.31-1.59-6.47v-9.31c.1-.15.27-.3.28-.46a29.61,29.61,0,0,1,3-10.66,47.66,47.66,0,0,1,9.37-12.43,88.74,88.74,0,0,1,10.55-9,39.16,39.16,0,0,1,14.49-6.85c1.74-.39,3.48-.75,5.23-1.12Z"
              fill="#fff"/>
        <path d="M213.91,152.21h-5.8a3.84,3.84,0,0,0-.87-.28c-3-.11-6.06-.13-9.07-.32-3.43-.21-6.87-.42-10.26-.89-4.69-.65-9.37-1.38-14-2.35a35.94,35.94,0,0,1-13.57-5.46c-3.06-2.19-5.8-4.83-8.71-7.23l-12.19-10c-.91-.73-1.91-1.93-2.86-1.93-8,0-15.89.22-23.83.33q-13.74.18-27.48.29H73.39a4,4,0,0,1-1.64-.37c-5.24-2.58-10.47-5.2-15.7-7.8-2-1-4-2-6-2.9-3-1.36-5.7-3-7.08-6.18v-2.93c1.13-1.57,2-3.49,3.42-4.65,4.38-3.49,8.88-6.85,13.53-10,9.28-6.25,18.76-12.2,28-18.5a104.93,104.93,0,0,1,18.19-9.59c5.83-2.48,11.64-5,17.47-7.5,4-1.72,8-3.69,12.18-5.06,7.43-2.44,14.94-4.71,22.52-6.68a132.36,132.36,0,0,1,14.65-2.68c4.19-.6,8.43-.88,12.66-1.2,4.82-.36,9.65-.6,14.47-.9,1.84-.12,3.68-.28,5.28-.4-2.1-2.49-4.42-5-6.43-7.71A47.17,47.17,0,0,1,191.32,15c-1.57-5.19-.17-8.89,4.64-11.21,4.38-2.11,9.09-2.5,13.81-2.93.73-.07,1.46-.19,2.18-.29h8.12c1.24.2,2.47.46,3.71.57a43.11,43.11,0,0,1,12.1,3.35A5.42,5.42,0,0,1,238,6.23c1.87,2.44,1.51,5.23.65,7.84-2.3,7-6.07,13.14-10.38,19-.67.91-1.38,1.81-2.11,2.76,2.29.26,4.32.56,6.36.71,3.43.25,6.88.33,10.31.62s7,.67,10.49,1.19c4.34.67,8.68,1.42,13,2.32,5.54,1.16,11.2,2,16.52,3.88,7.48,2.6,14.69,6,22,9.05l16,6.67c3.31,1.37,6.74,2.52,9.93,4.15,4,2,7.77,4.37,11.58,6.68,7.66,4.64,15.35,9.23,22.88,14.08a124.1,124.1,0,0,1,12.37,9.14,41.29,41.29,0,0,1,8.85,11v2.93a18.68,18.68,0,0,1-2.64,2.31c-1.78,1.06-3.72,1.87-5.54,2.87-5,2.73-9.95,5.52-14.94,8.26-4,2.21-8.49,2.48-12.84,2.57-7.15.13-14.31-.3-21.47-.5-2.44-.07-4.89-.19-7.33-.29-5-.2-10-.41-15-.58-3.6-.13-7.2-.2-10.81-.3a1.55,1.55,0,0,0-.43,0c-.52.14-1.16.15-1.52.48-3,2.77-6,5.61-8.95,8.42-4.35,4.1-8.72,8.17-13,12.31a9.1,9.1,0,0,1-4.54,2.49c-3.75.74-7.51,1.51-11.29,2.09s-7.52,1-11.3,1.42c-2.61.28-5.23.4-7.85.61-4.75.38-9.5.81-14.25,1.14-2.73.19-5.47.21-8.2.32A3.73,3.73,0,0,0,213.91,152.21Z"
              fill="#96838c"/>
        <path d="M0,199.69v-2c.09-.89.21-1.77.25-2.66a59.34,59.34,0,0,1,3.53-17.87A35.11,35.11,0,0,1,38.34,154a15.13,15.13,0,0,1,12.4,6.6c.24.34.49.66.74,1h.4c2.13-14,9.9-25.47,16.87-37.7-2.49-1.48-4.83-3-7.3-4.31-4.42-2.33-9-4.46-13.37-6.82a18.72,18.72,0,0,1-6.69-5.68,1.8,1.8,0,0,1-.1-2.18,27.73,27.73,0,0,1,7.1-8.11q9.86-7.44,20-14.51A277.42,277.42,0,0,1,124,51.93c24-9.66,48.78-15.59,74.8-16h1.86c-3.37-5.13-6.55-10-9.69-14.8a13.43,13.43,0,0,1-1.52-3,21.37,21.37,0,0,1-1.27-4.91c-.37-4.51,2.81-8.9,7.74-10.36a93.85,93.85,0,0,1,9.26-1.76C207,.74,208.88,0,210.74,0c5.11,0,10.23.18,15.33.54a37.59,37.59,0,0,1,12.27,2.75c6.86,2.92,8.59,7,5.91,13.84-2.33,6-6.12,11.09-9.92,16.2l-2,2.66h1.56a166.84,166.84,0,0,1,41.74,5A250,250,0,0,1,336.51,65.1,318.29,318.29,0,0,1,382.15,95a44.07,44.07,0,0,1,9.31,9.58c.76,1.11.9,2.11-.11,3-2.11,1.83-4.09,3.92-6.48,5.29-4.91,2.81-10.09,5.16-15.1,7.81-1.88,1-3.6,2.27-5.31,3.36,3.12,6.37,6.26,12.42,9.06,18.61s5.34,12.61,8.05,19.06c.25-.35.52-.66.72-1,2.61-4.58,6.7-6.73,11.89-6.92,8.05-.29,15.13,2.65,21.9,6.59a27.9,27.9,0,0,1,11,11.8,50.11,50.11,0,0,1,4.76,14.34c.49,2.88.78,5.79,1.16,8.68V202c-.38,3-.63,6-1.16,9-1.61,9.1-4.7,17.64-10.71,24.88-6.95,8.38-15.86,12.26-26.87,10.64-3.18-.46-6.28-1.43-9.38-2.15-1.64,5.69-3.2,11.58-5,17.39-3.28,10.37-6.95,20.62-12.46,30.08-9.85,16.95-23,31.12-38.35,43.27a214,214,0,0,1-77.81,38.71c-10.2,2.74-20.47,4.65-31.08,4.72a150.64,150.64,0,0,1-48.2-7.7,228.46,228.46,0,0,1-57.72-28.62,158.34,158.34,0,0,1-38.45-36.66c-13-17.52-21.4-37.08-26.7-58l-.9-3.5c-1.31.43-2.43.83-3.57,1.18-13.8,4.22-25.8.31-34.25-11.26a53.28,53.28,0,0,1-9.21-23.27C.6,207,.39,203.35,0,199.69Zm157,50.47-.17-.21-2.2,1.21A123.43,123.43,0,0,1,131,261.71c-5.75,1.78-11.58,3.41-17.61,3.78a41.4,41.4,0,0,1-27-8c-16.81-12-25.16-28.87-27-49-.84-9.38.91-18.46,4-27.28,6.15-17.28,17.7-29.57,34.92-36.51,14-5.66,28.73-6.75,43.67-5.81,4,.25,7.94.73,12,1.1-.09-.14-.13-.29-.23-.37l-16.38-13.81a2.26,2.26,0,0,0-1.31-.38c-3,0-6-.08-9,0-6.78.2-13.56.57-20.35.7-7.36.14-14.73,0-22.09.17a77,77,0,0,0-9.08,1.18,2.89,2.89,0,0,0-2.35,2c-.71,1.75-1.6,3.43-2.43,5.13-3.63,7.44-7.41,14.8-10.84,22.33-2.53,5.56-4,11.4-3.18,17.63a10.77,10.77,0,0,1,0,3.67c-2.61,12.45-9.81,21.44-23.36,23.91-3.35.62-6.65.59-9.74-1.2A2.32,2.32,0,0,1,22.25,198l.09-.22c.5-1.52,1.3-2.31,2.83-2.34a9.21,9.21,0,0,1,2.28.19A14.93,14.93,0,0,0,38.1,194a27.28,27.28,0,0,0,7.79-6.18,17,17,0,0,0,4.61-10.31c.53-10.57-9.35-18.85-20.06-16.85-7,1.32-12.15,5.29-16,11.06a48.55,48.55,0,0,0-6.86,17.9c-1.77,9.06-2.17,18.12.43,27.09,2.73,9.39,8.06,16.76,17.67,20.2,9.16,3.29,15.54,2.12,21.83-4.78,1.12-1.23,2.33-2.39,3.55-3.52a1.68,1.68,0,0,1,1.23-.42,6,6,0,0,1,4.54,3.56c.37.94-.87,2.51-1.41,3.78a1.58,1.58,0,0,1-.41.58c-2.81,2.79-3.11,6.12-2.15,9.73.24.87.43,1.74.68,2.61,2.58,9.11,6.49,17.73,10.14,26.46a144.14,144.14,0,0,0,42.68,56.77,195,195,0,0,0,54,30.82,196.94,196.94,0,0,0,49.81,11.55c3.54.37,7.1,1,10.71.31,2-.39,4-.51,6-.77,5.55-.72,11.15-1.15,16.62-2.23a180.59,180.59,0,0,0,28.69-8.58,176.17,176.17,0,0,0,45.76-25c9.71-7.48,18.61-15.88,27.42-24.36a76,76,0,0,0,16.39-22.06c3.68-7.72,7.1-15.58,10.38-23.47,2.36-5.67,4.59-11.41,6.37-17.27,1.69-5.54,1.47-11.13-1.79-16.27-.94-1.49-1.05-2.54.19-3.76a17.26,17.26,0,0,1,3.63-2.36c.69-.4,1.15,0,1.66.57a36.11,36.11,0,0,0,4.33,4.5c8.93,7.06,21.72,6.68,29.83-.86,3.9-3.62,6.21-8.24,7.77-13.22,3.27-10.43,3.11-21,.63-31.5-1.67-7.12-4.41-13.77-9.25-19.42-6.92-8.09-17.48-9.92-26.17-4.59-6.31,3.88-8.67,10.57-6.1,17.45a23.33,23.33,0,0,0,9.25,11.43c3.52,2.36,7.27,4,11.71,3.15a31.77,31.77,0,0,1,4.14-.3c1.62-.07,2.16.43,2.26,2a4.23,4.23,0,0,1-3,4.48c-2.92,1.05-5.85.57-8.77,0a28,28,0,0,1-22.72-30,17.88,17.88,0,0,0-.95-8.36c-.63-1.58-1-3.24-1.6-4.85-3.8-10.81-7.76-21.54-14.71-30.89a2.34,2.34,0,0,0-2.09-1.1c-6.07-.11-12.14-.29-18.22-.43q-20.66-.48-41.31-.9a3.36,3.36,0,0,0-2,.71c-5.09,4.22-10.14,8.5-15.2,12.77-.37.31-.71.65-1.09,1,4.19-.34,8.23-.76,12.28-1A95.2,95.2,0,0,1,325.63,143c16.88,5.37,30.44,15,39.39,30.42a60.17,60.17,0,0,1,8.43,27.1A66.16,66.16,0,0,1,371,221.1c-3.31,12.41-9.49,23.09-20,31-12.33,9.22-26.39,11.38-41.35,9.31A96.21,96.21,0,0,1,281,252.29l-2-.93L280.1,253c5.38,7.65,10.9,15.19,16.09,23a130.46,130.46,0,0,1,14.32,27.81,2.27,2.27,0,0,1,0,1.77c-1.09,1.71-2.81,1.85-3.93.13q-2.58-4.08-4.75-8.39c-1.78-3.44-3.1-7.15-5.16-10.41-5.48-8.65-11.21-17.14-16.9-25.66-3.26-4.89-6.54-9.77-10-14.53a58.29,58.29,0,0,0-5.17-5.49l-1.25,3c-1.69,4.16-2.93,8.57-5.15,12.43-5.26,9.09-12.51,16.36-22.27,20.8-11.73,5.33-23.68,5.95-35.72.91a51.05,51.05,0,0,1-20.08-15.19c-5.33-6.57-10.48-13.3-11.06-22.61A18.66,18.66,0,0,0,167.6,242c-3.75,4.91-7.51,9.8-11.21,14.74-6.14,8.15-12.29,16.29-16.68,25.57a22.7,22.7,0,0,1-2.8,4.26,14.71,14.71,0,0,1-2.86,2.54,1.7,1.7,0,0,1-1.46-.09,14.84,14.84,0,0,1-2-1.52,58.7,58.7,0,0,1,3.51-6.6c4.43-6.32,9-12.55,13.62-18.76,3-4,6.15-8,9.25-12Zm57,25.62c8,0,13.52-.75,18.77-2.66,15.66-5.7,24.65-16.58,26.16-33.21a2.82,2.82,0,0,0-1.41-3,52.85,52.85,0,0,1-4.31-3.3c-5.72-4.56-11.29-9.33-17.86-12.76-11.3-5.89-22.88-6.38-34.47-1.28A120,120,0,0,0,186,227.94a49.24,49.24,0,0,0-11.17,9.48,2.77,2.77,0,0,0-.74,1.72c.41,9.79,3.78,18.37,11.08,25.17A43.35,43.35,0,0,0,214,275.78ZM324.2,208.26a50.92,50.92,0,0,0-.79-6.27c-4.24-16.64-14.44-28.08-31-33.62-5.87-2-12-2.94-18-.18-1.15.53-2.47.71-3.69,1.13a36.61,36.61,0,0,0-4.4,1.69c-6.51,3.29-10.88,13-9.5,20.83A30,30,0,0,0,263.79,206c6.87,8.21,15.57,14,25.14,18.7a32.45,32.45,0,0,0,17.77,3.12c8.16-.77,14.06-5.19,16.24-12.64A59.44,59.44,0,0,0,324.2,208.26ZM110.83,206.9a30.61,30.61,0,0,0,2,11.24c3.19,8.13,9.28,12.15,18.06,11.89a40.07,40.07,0,0,0,16-4c14.06-6.66,23.47-17.35,27.79-32.16,2.66-9.09-.34-17.37-7.9-22.09-6-3.79-12.49-6.3-19.9-4.35-2.57.68-5.32.87-7.75,1.84a48.76,48.76,0,0,0-16.48,11.11c-7.31,7.4-11.8,16-11.82,26.52ZM48.62,105.43c5.94,3.48,11.46,6.76,17,10a40.26,40.26,0,0,0,5,2.4c3.79,1.51,5.51.9,8.1-2.2,2.09-2.51,4.35-4.88,6.66-7.2,1.88-1.88,4.07-3.47,5.87-5.41,2.11-2.29,4-4.78,5.9-7.26.69-.9-.05-2.69-1-3.22-2.88-1.57-5.75-3.15-8.59-4.78s-5.47-3.26-8.22-4.88a2.4,2.4,0,0,0-2.87.15c-3.15,2.15-6.41,4.12-9.54,6.29C61.57,93,56.23,96.8,51.68,101.5A44.93,44.93,0,0,0,48.62,105.43Zm336.16-.2c-1.44-1.55-2.55-2.92-3.83-4.1a155.89,155.89,0,0,0-22.71-17.24c-2.21-1.39-4.15-1.87-6.33-.2a7.29,7.29,0,0,1-1,.52c-4.48,2.61-9.1,5-13.38,7.92-3,2-2.53,2-.67,4.38a168.41,168.41,0,0,0,19.31,20.74,3.36,3.36,0,0,0,4.24.7c5.49-2.75,11-5.4,16.51-8.2C379.48,108.44,381.93,106.88,384.78,105.23ZM218.68,35.92v-.21c1.63,0,3.26-.1,4.88,0A3.7,3.7,0,0,0,227,34.13,62.75,62.75,0,0,0,237.54,14a2.43,2.43,0,0,0-.57-2.47,10.55,10.55,0,0,0-5.63-3.6c-3.47-.82-7-1.46-10.52-2a16.45,16.45,0,0,0-8.21.44,14.31,14.31,0,0,1-2.83.41,78.86,78.86,0,0,0-9.18,1.41c-5,1.33-6.55,5.09-4,9.47a89.9,89.9,0,0,1,6.22,12.41,7.84,7.84,0,0,0,6.59,5C212.49,35.52,215.59,35.67,218.68,35.92ZM324.14,95.56a35.29,35.29,0,0,0-2.9-3.21c-2.59-2.23-5.16-4.53-7.95-6.49-4-2.79-8.12-5.32-12.24-7.89a2.09,2.09,0,0,0-1.79-.16c-5.57,3.42-11.15,6.85-15.75,11.53-2.59,2.64-2.95,1.89-.39,5.13,4.61,5.85,9.54,11.45,14.42,17.08,1.66,1.92,1.79,1.84,4.06.62a19.05,19.05,0,0,0,1.86-1.07c4.85-3.44,9.73-6.85,14.52-10.37C320.08,99.19,322,97.39,324.14,95.56ZM151.78,92.41a14.52,14.52,0,0,0-1.89-2.32c-1.34-1.12-2.92-2-4.23-3.12-1.87-1.62-3.57-3.43-5.39-5.11a16.29,16.29,0,0,0-6.89-4.16,2,2,0,0,0-1.42.13c-3.83,2.49-7.64,5-11.42,7.57-2.56,1.73-5.16,3.43-7.55,5.38a24.61,24.61,0,0,0-3.49,4.07c-.42.53-.37,1,.29,1.54,5.16,3.91,10.23,7.94,15.44,11.77,2.33,1.71,4.93,3.06,7.42,4.55.9.54,1.55.4,2.23-.55,1.33-1.85,2.8-3.6,4.3-5.31,3.88-4.43,7.81-8.82,11.71-13.23.28-.31.45-.67.89-1.21ZM349.34,78.64c-.53-.29-.87-.5-1.24-.68-1.45-.72-3-1.33-4.35-2.14-4.65-2.72-9.22-5.55-13.89-8.23-3.3-1.89-6.64-3.74-10.47-4.47a2.78,2.78,0,0,0-2.49.58C314,66,311,68.27,308.11,70.55c-.74.57-1.47,1.17-2.29,1.82.65.69,1.17,1.3,1.76,1.84a118.57,118.57,0,0,0,18.26,13.9,44.7,44.7,0,0,0,4.22,2.09,2.38,2.38,0,0,0,2.53-.31C337.76,86.41,343,83,348.17,79.52,348.48,79.29,348.8,79,349.34,78.64ZM127.1,72.22c-2.32-2-4.41-3.81-6.6-5.54a28.61,28.61,0,0,0-4.47-3,4.3,4.3,0,0,0-5,.25A15.63,15.63,0,0,1,109,65L84.18,78.66A105.9,105.9,0,0,0,97.71,88.78c2.89,1.92,5.42,1.81,8.31,0a120.12,120.12,0,0,0,17.73-13.19c1.25-1.09,2.35-2.37,3.32-3.37Zm48.08,5.47c-3.27,3-6.44,5.83-9.44,8.8a32.87,32.87,0,0,0-3.22,4.31c-.63.87-.42,1.51.39,2.27,7,6.51,14,13.08,20.94,19.62.33.31.69.6,1.14,1l11.21-15c-6.68-7.5-13.34-14.78-21-21Zm83.12.36L236.88,98.34l11.46,15.32,23-22.1c-4.55-4.71-7.8-10.51-13.07-13.51Zm-38.76,2.13a4.35,4.35,0,0,0,.69,1.27q5.85,5.22,11.75,10.38c.71.63,1.3.58,2-.18,2.56-2.69,5.22-5.28,7.84-7.91,3.09-3.09,6.17-6.2,9.27-9.28.58-.58,1.07-1.16.42-2-2.59-3.15-5.08-6.39-7.85-9.39a15.27,15.27,0,0,0-4.29-2.71,2,2,0,0,0-1.76.32,86.82,86.82,0,0,0-7.18,6.09c-3.16,3.14-6.14,6.46-9.07,9.82A16.6,16.6,0,0,0,219.54,80.18Zm-3.08-6.79c2.13-2,4.13-3.88,6.16-5.74q5.06-4.61,10.15-9.19c.51-.47,1-.83.24-1.58-3.12-3-6.09-6.14-9.32-9a68.41,68.41,0,0,0-6.46-4.63,1.27,1.27,0,0,0-1.76.17c-2.45,2-5,3.92-7.43,6-2.74,2.41-5.33,5-8,7.51a1,1,0,0,0-.27,1.39.87.87,0,0,0,.27.27c5.49,4.9,10.91,9.82,16.42,14.8Zm-36.12-.21a16.52,16.52,0,0,1,1.37,1c5.8,5.29,11.61,10.56,17.35,15.92,1,1,2,1.14,3,.34A43.62,43.62,0,0,0,207.42,86a81.72,81.72,0,0,0,5.4-6.77,1.3,1.3,0,0,0,.05-1.84s0,0-.05-.05C208.37,72.73,204,68,199.5,63.47a40.66,40.66,0,0,0-4.71-3.66Zm95.26,23c-8.07,7.78-15.8,15.23-23.79,22.95l42.65-.88c-.45-.6-.67-.94-.93-1.24-1.66-1.89-3.4-3.72-5-5.67-2.79-3.48-5.39-7.11-8.23-10.55a59.75,59.75,0,0,0-4.67-4.61ZM138.7,118.26l42.18.86.23-.5-24-22.24Zm190.78-18.8-24.8,18c14.78,1.24,29.38,3,44.46,2.51A192.86,192.86,0,0,0,329.48,99.46ZM83.9,119.91c15,.63,29.64-.75,44.25-2.21l.16-.39L103.1,99.55Zm112.79,6.64c1.12,1.49,2,2.77,3,4,3.85,4.83,7.76,9.62,12.72,13.41,3.76,2.88,5.32,2.87,8.93-.19C227.09,138.91,231.68,133,236,127c.06-.09,0-.26,0-.4ZM293.34,74q-.27-.33-.57-.63c-3.56-2.37-7.06-4.83-10.7-7.07A72.93,72.93,0,0,0,275.34,63a1.87,1.87,0,0,0-2.29.53c-2.88,2.7-5.83,5.33-8.75,8-1.32,1.2-1.33,1.57-.05,2.86,3.71,3.75,7.49,7.44,11.11,11.28,1.12,1.19,2,1.17,3.13.34,3.48-2.58,7-5.13,10.38-7.8C290.34,76.93,291.75,75.47,293.34,74Zm-32.15,67.8a1.37,1.37,0,0,0-.05-.4c-2.4-5-4.79-10.07-7.24-15.07a1.68,1.68,0,0,0-1.32-.68c-2.3,0-4.59.2-6.88.18a3.2,3.2,0,0,0-2.67,1.26c-4.66,5.25-9.36,10.47-14.05,15.7l-2.64,3Zm-54.6,3.95-1.18-1.4c-4.9-5.49-9.84-10.94-14.67-16.49-1.21-1.38-2.38-2.2-4.34-2a34.55,34.55,0,0,1-5.57-.19,1.69,1.69,0,0,0-2,1.15c-2.14,4.63-4.38,9.22-6.58,13.82-.17.35-.3.73-.48,1.2ZM170.25,72.6a12.69,12.69,0,0,1-1.13-.79C166.06,69,163,66.27,160,63.44a2.27,2.27,0,0,0-3.18-.23c-5.32,3.42-10.67,6.81-16,10.22-.3.19-.57.43-1.06.81,1.36,1,2.67,1.78,3.78,2.77,2.22,2,4.23,4.25,6.55,6.13a36.47,36.47,0,0,0,5.56,3.35c.88.49,1.63.18,2.34-.62,2.24-2.52,4.57-5,6.86-7.42Zm58.9,25.75c-.2-.24-.39-.48-.6-.71-1.11-1.24-2.23-2.46-3.33-3.7-1.32-1.5-2.55-3.07-3.94-4.49a10,10,0,0,0-5.68-3.08,2.07,2.07,0,0,0-1.55.33c-3.41,3.5-6.76,7.06-10.13,10.6a1.41,1.41,0,0,0-.13,2l.13.13a78.92,78.92,0,0,0,11.64,11.69,1.73,1.73,0,0,0,2.43,0,43.05,43.05,0,0,0,10.5-11.32,13.37,13.37,0,0,0,.66-1.5ZM122.47,60.18c.58.47.94.82,1.36,1.1,3.48,2.33,7,4.63,10.43,7a1.59,1.59,0,0,0,2,0c5.47-3.38,11-6.7,16.46-10.05.35-.21.67-.47,1.09-.76a22.5,22.5,0,0,0-8.52-5.56,3.43,3.43,0,0,0-2.17.09c-5.65,2.17-11.27,4.42-16.9,6.65ZM310.61,60c-.69-.29-1.12-.49-1.56-.65-6-2.16-12-4.17-17.85-6.55-2.57-1.05-4.47-.92-6.54.88a65.94,65.94,0,0,1-5.68,4,9.36,9.36,0,0,0,1.06.82l17,10a1.46,1.46,0,0,0,1.24,0c4.06-2.74,8.06-5.59,12.33-8.55ZM206,120.78c2.51-.21,4.56-.33,6.59-.58,1.7-.21,2-.67,1-2.1a30.93,30.93,0,0,0-4.19-5.15c-2.62-2.48-5.47-4.72-8.24-7a3,3,0,0,0-3.41.1c-1.74,1.55-3.5,3.08-5.15,4.71a13.84,13.84,0,0,0-4,6.26c-.39,1.48-.1,2,1.46,2.17C195.55,119.78,201,120.3,206,120.78Zm23.22-.11.07.29c4.42-.63,8.87-1.13,13.26-1.94,2.45-.45,2.72-1.24,1.44-3.33a29.87,29.87,0,0,0-4.06-5.62,37.71,37.71,0,0,0-5.8-4.25,1.57,1.57,0,0,0-1.43,0c-4.49,3-8.72,6.3-11.92,10.69-1.4,1.92-.65,3.46,1.73,3.71s4.47.33,6.71.48Zm31,5.68c2.17,5,4.15,9.55,6.21,14.11a1.5,1.5,0,0,0,1.27.6,17,17,0,0,0,3.94-1.64,38.75,38.75,0,0,0,11.74-12,7.35,7.35,0,0,0,.5-2.32c-6.17,0-11.91-.11-17.65.06-1.93,0-3.86.76-6,1.22Zm-84.87-1.19h-28.2c.63.53,1.05.9,1.49,1.26,5,4.16,10.08,8.28,15,12.51a1.9,1.9,0,0,0,2.7.15l.15-.15a6.46,6.46,0,0,0,.93-.88c3.3-3.81,5.48-8.33,7.94-12.86ZM267.94,59.1c-6.09-3-11.74-5.7-17.39-8.42a.85.85,0,0,0-.76,0c-2,1.67-4,3.36-6.37,5.42,2.61,2.39,5,4.68,7.52,6.86,1.76,1.53,3.63,2.92,5.49,4.33a1.66,1.66,0,0,0,2.36,0l.12-.13c1.38-1.3,3-2.31,4.46-3.57s2.89-2.79,4.58-4.44Zm-102.54.13c3.07,2.69,6,5.15,8.82,7.78a1.84,1.84,0,0,0,2.57.38l.22-.19A68.73,68.73,0,0,0,189,56c.05-.06,0-.18.09-.6-2-1.49-4.08-3.1-6.22-4.66a1.11,1.11,0,0,0-.89,0c-5.41,2.8-10.87,5.59-16.58,8.51Zm79.85-16.41c.37.18.74.37,1.13.54,5,2.19,10.05,4.36,15.08,6.56,3.14,1.37,6.24,2.85,9.43,4.11.88.35,2.32.54,2.95.07,2.19-1.64,4.13-3.61,6.22-5.49-8.59-3.6-12.8-3.83-34.8-5.76Zm-91.71,5.49c1.71,1.91,3.49,3.87,5.24,5.86a1.43,1.43,0,0,0,2,.36h0q13.1-5.7,26.24-11.31c.37-.16.71-.37,1.31-.68-12.25.38-23.6,3.9-34.78,5.81Zm40,4.37c6.47-3.8,12.79-8.51,13.81-10.33-1,.26-1.89.54-2.81.73-3.89.76-7.8,1.38-11.65,2.28A30,30,0,0,0,188,47.45Zm51.54-5.19c-5.68-2.71-16.28-5.4-19.84-5a80.44,80.44,0,0,0,14,9.43,1,1,0,0,0,.87-.11c1.59-1.36,3.18-2.79,4.89-4.29Z"/>
        <path d="M203.26,302.07c11.7.33,21.71,2.67,30.65,8.61a53.93,53.93,0,0,1,16.25,17.52c2.42,4,4.77,8.09,5.5,12.82a20.86,20.86,0,0,1,.22,3.53c0,2.83-.64,3.47-3.48,4.09a8.91,8.91,0,0,1-6.37-1,68.47,68.47,0,0,1-5.85-3.84,75.26,75.26,0,0,0-35.38-14c-4.14-.48-8.4.12-12.6,0-7.19-.21-13.94,2-20.86,3.37a20.54,20.54,0,0,1-6.26.24c-4.86-.55-6.57-4.26-3.75-8.27a53.44,53.44,0,0,1,12.12-12.76,52.8,52.8,0,0,1,15.64-7.88A64.28,64.28,0,0,1,203.26,302.07Z"/>
        <path d="M325.62,281.62c0-1.63,1.43-3.3,3.3-4.51.63-.41,1.86-.15,2.74.08a5.56,5.56,0,0,1,3.44,7.07c-.09.24-.19.47-.3.7-.79,1.29-4.32,2.4-6.14,1.92S325.64,284.64,325.62,281.62Z"/>
        <path d="M93.17,294.1c.14,3.2-1.76,4.07-5.13,4.24-2.63.14-4.55-2.17-4.48-5,0-2.06,2.73-5.1,4.48-5.09C91.26,288.26,93.27,290.56,93.17,294.1Z"/>
        <path d="M332.74,297.31c3.43.11,6.24,2.36,6,5.05-.25,2.53-1.64,4.35-4.87,4.2-2.9-.13-4.94-2.07-4.74-4.77C329.34,298.93,330.42,297.12,332.74,297.31Z"/>
        <path d="M110.42,303.49c-2.72,0-4.46-1.35-4.9-4a3.21,3.21,0,0,1,.29-1.88,6.08,6.08,0,0,1,4.69-3.36c2.69-.28,4,.46,4.54,3.44C115.57,301,113.63,303.47,110.42,303.49Z"/>
        <path d="M345.34,139.14c0-2.21,2-4.93,3.7-5,2.64,0,5.86,2.79,5.86,5.12a4.73,4.73,0,0,1-4.93,4.48C346.93,143.78,345.34,142.16,345.34,139.14Z"/>
        <path d="M326.9,139c-1.7.26-2.86-1.08-3.71-2.66s-.26-3.3.82-4.74c1.56-2.07,3.13-2.21,5.95-.56,2.41,1.42,3.23,3.31,2.25,5.41S329.4,139,326.9,139Z"/>
        <path d="M82.88,142.71a10.94,10.94,0,0,1-1.95-.42,3.62,3.62,0,0,1-1.61-6A9.37,9.37,0,0,1,83,133.68a3.77,3.77,0,0,1,3.23.9,5.83,5.83,0,0,1,1.38,3.72C87.53,141.9,86.47,142.56,82.88,142.71Z"/>
        <path d="M110.07,134.88c.3,1.94-.81,3.11-2.4,3.74a5.34,5.34,0,0,1-5.67-.79c-1.93-1.63-2.17-2.88-.58-4.8a10,10,0,0,1,3.52-3c2.13-.87,4.63,1,5,3.43A13.38,13.38,0,0,1,110.07,134.88Z"/>
        <path d="M268.53,308.24a4.19,4.19,0,0,1-4,4.37h-.08a5.22,5.22,0,0,1-4.86-5c.05-2.41,1.51-4.29,3.23-4.32C265.34,303.21,269.09,305.83,268.53,308.24Z"/>
        <path d="M184.88,289.41a4.46,4.46,0,0,1-3.29,4.58c-3.06,1.17-5.75-.84-5.39-4a5.57,5.57,0,0,1,4.27-4.85C182.94,284.69,185,286.66,184.88,289.41Z"/>
        <path d="M254.89,289.37V289c.25-1.63.35-3.39,2.27-4.06,1.6-.56,4.18.64,5.32,2.35a4.41,4.41,0,0,1,0,5.16,4.79,4.79,0,0,1-5,1.55C255.8,293.38,254.88,291.78,254.89,289.37Z"/>
        <path d="M170.63,272.89a5.11,5.11,0,0,1-4.54,4.71c-2.49,0-4.16-2.1-4.13-5.19,0-1.5,2.55-4,4-4C169.61,268.34,170.54,270.11,170.63,272.89Z"/>
        <path d="M73.93,154.41a4.2,4.2,0,0,1-2.67,4,5,5,0,0,1-5.32-1,2.91,2.91,0,0,1-.62-1.4c-.6-2.15,1.5-5.7,3.68-6.23a4.09,4.09,0,0,1,4.38,2.28A13.59,13.59,0,0,1,73.93,154.41Z"/>
        <path d="M362,158a3.85,3.85,0,0,1-4.16-3.5q0-.3,0-.6c0-2.33,1.51-4.66,3-4.69,2.72,0,5.65,2.42,5.67,4.78C366.51,156.61,364.93,158,362,158Z"/>
        <path d="M81.28,275.54c-.29,2.21-1.17,3.5-3,4.14-1.46.51-4.42-.09-5.1-1.35-.5-.95-.91-2.49-.47-3.28a16.87,16.87,0,0,1,3.54-4c.62-.58,3,.12,3.56,1A27.41,27.41,0,0,1,81.28,275.54Z"/>
        <path d="M277.74,297.59a4.26,4.26,0,0,1-3.77-3.81c0-2.1,2.24-4.76,4-4.71,2.79.06,5,1.85,4.81,4.19C282.49,296.28,281.34,297.43,277.74,297.59Z"/>
        <path d="M361,263c-2.66,0-3.9-1.07-3.9-3.68a7.89,7.89,0,0,1,.76-3.24c1-2.21,3.22-2.52,5.11-.87a9.44,9.44,0,0,1,1,1c1.07,1.21,1.9,2.6,1.38,4.22C364.73,262.26,363.34,263,361,263Z"/>
        <path d="M158.52,293.49a4.16,4.16,0,0,1-3.62,4.06,4.72,4.72,0,0,1-5-4.45,2.62,2.62,0,0,1,0-.28c0-1.39,2.5-4,3.9-4a4.52,4.52,0,0,1,4.72,4.31Z"/>
        <path d="M346.34,267.78c2.6.14,5.72,2.46,5.65,4.21s-2.53,4.31-4.07,4.21c-2.12-.13-5.15-2.68-5-4.22S345.24,267.78,346.34,267.78Z"/>
        <path d="M105.11,281c0,1.86-2.41,4.13-4.29,4.08-1.56,0-4.31-2.54-4.28-3.89,0-1.62,3.26-4.59,5-4.55C103.77,276.66,105.15,278.31,105.11,281Z"/>
        <path d="M314.81,272.54a4.25,4.25,0,0,1-4.1,4.12,3.41,3.41,0,0,1-3.7-3.1,3.64,3.64,0,0,1,0-.66c0-2.38,1.67-4.56,3.38-4.52A4.36,4.36,0,0,1,314.81,272.54Z"/>
        <path d="M126.06,281.78c0,1.72-1.48,3.62-2.86,3.62-2.41,0-5-2-5.14-3.86-.09-1.58,2.37-4.26,4-4.32C124.23,277.09,126,279.12,126.06,281.78Z"/>
        <path d="M283.25,184.87a7.19,7.19,0,0,1-3.2,5.92,10.57,10.57,0,0,1-14.49-2.65,7.87,7.87,0,0,1,.69-10.17c2.25-2.35,4.74-4.29,8.42-3.23a11.22,11.22,0,0,1,8.14,7.63A17.68,17.68,0,0,1,283.25,184.87Z"/>
        <path d="M126.39,185.78a19.28,19.28,0,0,1,1.23-3.86c2.61-4.57,8.29-7.57,14-4.62a7.82,7.82,0,0,1,4.27,8.62c-.95,5.88-7.59,9.9-13.32,8.07A9.13,9.13,0,0,1,126.39,185.78Z"/>
        <ellipse cx="324.2" cy="331.01" rx="91.87" ry="92.5" fill="#fff"/>
        <path d="M324.2,249.46c45.52,0,82.33,36.59,82.26,81.7S369.4,412.68,324,412.56s-82.16-36.7-82.09-81.65S278.9,249.42,324.2,249.46Zm-50.51,44.2c-17.56,22.35-18.44,59.48,7.88,83.45,26.13,23.79,61.31,18.94,80,4.14ZM374.8,368.42c.5-.67.81-1.05,1.09-1.45,10.49-15.3,13.88-32,9.8-50.06a62.78,62.78,0,0,0-50.11-47.49,63.42,63.42,0,0,0-48,10.54c-.74.52-.85.89-.14,1.51s1.49,1.46,2.22,2.19l79.68,79.18c1.79,1.78,3.53,3.61,5.46,5.58Z"
              fill="#c6302e"/>
    </g>
</svg>