<svg xmlns="http://www.w3.org/2000/svg" viewBox="0 0 234.46 15.91"><path d="M7.87 15.67L2.8 9.45v6.22H0V1.72h2.8V8l5.07-6.28h3.38L5.5 8.63l5.91 7zm16.77 0l-1.52-1.5a6.83 6.83 0 01-4.74 1.74 6.54 6.54 0 01-2.7-.53 4.22 4.22 0 01-1.81-1.5 4 4 0 01-.64-2.25A4.18 4.18 0 0114 9.15a5.54 5.54 0 012.3-1.78 5 5 0 01-.77-1.27 3.49 3.49 0 01-.24-1.3 3 3 0 01.5-1.73 3.26 3.26 0 011.42-1.21 5.09 5.09 0 012.17-.44 4.53 4.53 0 012.16.48 3.13 3.13 0 011.34 1.28A3.22 3.22 0 0123.26 5h-2.72a1.33 1.33 0 00-.32-1 1.18 1.18 0 00-.92-.35 1.36 1.36 0 00-.93.33 1.1 1.1 0 00-.37.85 1.84 1.84 0 00.3 1 8 8 0 001 1.21l3.52 3.48a.21.21 0 00.06-.08v-.08L24 8.39h3l-1.4 2.46c-.27.52-.56 1-.86 1.48l3.37 3.34zm-3.28-3.24L17.92 9A2.69 2.69 0 0016 11.47a1.93 1.93 0 00.67 1.53 2.61 2.61 0 001.79.61 4.18 4.18 0 002.9-1.18zM41.68 1.72v14h-2.8V9.73h-6v5.94h-2.8V1.72h2.8v5.73h6V1.72zM50.76 5a6.6 6.6 0 012.54-2.55 7.17 7.17 0 013.61-.91A7.06 7.06 0 0161 2.74a6.2 6.2 0 012.46 3.31h-3.21a3.39 3.39 0 00-1.35-1.49 3.9 3.9 0 00-2-.5 4.14 4.14 0 00-2.17.57 3.88 3.88 0 00-1.48 1.6 5.38 5.38 0 00-.53 2.44 5.37 5.37 0 00.53 2.43 3.88 3.88 0 001.48 1.62 4.14 4.14 0 002.17.57 3.9 3.9 0 002-.51 3.44 3.44 0 001.35-1.51h3.21A6.2 6.2 0 0161 14.6a7.12 7.12 0 01-4.1 1.19 7.28 7.28 0 01-3.61-.91 6.71 6.71 0 01-2.54-2.53 7.27 7.27 0 01-.93-3.68A7.27 7.27 0 0150.76 5zm17.8 10.14a5.25 5.25 0 01-2-2 6 6 0 01-.73-3 5.91 5.91 0 01.75-3 5.19 5.19 0 012.05-2 6.26 6.26 0 015.79 0 5.19 5.19 0 012 2 5.91 5.91 0 01.75 3 5.82 5.82 0 01-.77 3 5.43 5.43 0 01-2.08 2 6.08 6.08 0 01-2.93.71 5.84 5.84 0 01-2.83-.71zm4.3-2.1a2.67 2.67 0 001.07-1.11 3.68 3.68 0 00.4-1.8 3.32 3.32 0 00-.83-2.43 2.75 2.75 0 00-2-.85 2.68 2.68 0 00-2 .85 3.4 3.4 0 00-.81 2.43 3.44 3.44 0 00.79 2.43 2.61 2.61 0 002 .85 2.85 2.85 0 001.38-.41zM97 5.68a4.75 4.75 0 011.25 3.49v6.5h-2.8V9.55a2.78 2.78 0 00-.66-2A2.37 2.37 0 0093 6.87a2.4 2.4 0 00-1.81.69 2.74 2.74 0 00-.67 2v6.12h-2.8V9.55a2.78 2.78 0 00-.66-2 2.37 2.37 0 00-1.8-.69 2.44 2.44 0 00-1.83.69 2.78 2.78 0 00-.67 2v6.12h-2.83V4.6h2.79v1.33a3.76 3.76 0 011.39-1.09 4.3 4.3 0 011.89-.4 4.76 4.76 0 012.3.56 3.89 3.89 0 011.58 1.56A4 4 0 0191.45 5a4.8 4.8 0 015.55.68zm21.56 0a4.75 4.75 0 011.25 3.49v6.5H117V9.55a2.78 2.78 0 00-.66-2 2.37 2.37 0 00-1.79-.69 2.4 2.4 0 00-1.81.69 2.74 2.74 0 00-.67 2v6.12h-2.8V9.55a2.78 2.78 0 00-.66-2 2.37 2.37 0 00-1.8-.69 2.44 2.44 0 00-1.83.69 2.78 2.78 0 00-.67 2v6.12h-2.79V4.6h2.79v1.33a3.76 3.76 0 011.39-1.09 4.3 4.3 0 011.87-.4 4.76 4.76 0 012.33.56 3.83 3.83 0 011.58 1.56A4 4 0 01113.05 5a4.8 4.8 0 015.51.66zm15.02-1.08v11.07h-2.82v-1.4a3.76 3.76 0 01-1.41 1.13 4.43 4.43 0 01-1.89.41 4.73 4.73 0 01-2.29-.55 3.9 3.9 0 01-1.57-1.62 5.33 5.33 0 01-.57-2.55V4.6h2.79v6.09a2.87 2.87 0 00.66 2 2.35 2.35 0 001.8.71 2.38 2.38 0 001.82-.71 2.87 2.87 0 00.66-2V4.6zm12.75 1.08a4.81 4.81 0 011.21 3.49v6.5h-2.79V9.55a2.88 2.88 0 00-.66-2 2.35 2.35 0 00-1.8-.71 2.42 2.42 0 00-1.83.71 2.84 2.84 0 00-.67 2v6.12H137V4.6h2.8V6a3.89 3.89 0 011.43-1.12 4.34 4.34 0 011.91-.41 4.29 4.29 0 013.19 1.21zm4.72-2.87a1.57 1.57 0 01-.49-1.17 1.57 1.57 0 01.49-1.17 1.84 1.84 0 012.46 0 1.53 1.53 0 01.49 1.17 1.53 1.53 0 01-.49 1.17 1.84 1.84 0 01-2.46 0zm2.61 1.79v11.07h-2.8V4.6zm3.4 2.52a4.93 4.93 0 011.93-2 5.57 5.57 0 012.84-.71 5.45 5.45 0 013.41 1 5 5 0 011.81 2.88h-3a2.24 2.24 0 00-.81-1.13 2.37 2.37 0 00-1.41-.41 2.31 2.31 0 00-1.9.87 3.9 3.9 0 00-.7 2.47 3.86 3.86 0 00.7 2.45 2.31 2.31 0 001.9.87 2.13 2.13 0 002.17-1.48h3a5.18 5.18 0 01-1.82 2.86 5.41 5.41 0 01-3.4 1.06 5.67 5.67 0 01-2.84-.71 5 5 0 01-1.93-2 6.17 6.17 0 01-.7-3 6.2 6.2 0 01.75-3.02zm12.65-.01a5 5 0 011.82-2 4.82 4.82 0 012.57-.7 4.43 4.43 0 012.17.5 4.48 4.48 0 011.49 1.25V4.6h2.81v11.07h-2.81v-1.62a4.19 4.19 0 01-1.49 1.29 4.54 4.54 0 01-2.19.51 4.73 4.73 0 01-2.55-.72 5.13 5.13 0 01-1.82-2 6.6 6.6 0 01-.67-3 6.51 6.51 0 01.67-3.02zm7.65 1.27a2.91 2.91 0 00-1.08-1.12 2.92 2.92 0 00-2.9 0 2.93 2.93 0 00-1.07 1.11 3.51 3.51 0 00-.41 1.73 3.62 3.62 0 00.41 1.75 2.93 2.93 0 001.08 1.15 2.81 2.81 0 001.43.4 2.88 2.88 0 001.46-.39 2.84 2.84 0 001.08-1.12 3.68 3.68 0 00.4-1.75 3.68 3.68 0 00-.4-1.76zm9.87-1.49v5.36a1.07 1.07 0 00.27.81 1.3 1.3 0 00.91.25h1.3v2.36H188q-3.54 0-3.54-3.44V6.89h-1.32V4.6h1.32V1.86h2.82V4.6h2.48v2.29zm5.34-4.08a1.57 1.57 0 01-.49-1.17 1.57 1.57 0 01.49-1.17 1.84 1.84 0 012.46 0 1.53 1.53 0 01.49 1.17 1.53 1.53 0 01-.52 1.17 1.71 1.71 0 01-1.23.47 1.73 1.73 0 01-1.2-.47zm2.61 1.79v11.07h-2.8V4.6zm5.46 10.54a5.11 5.11 0 01-2-2 6 6 0 01-.73-3 5.91 5.91 0 01.75-3 5.19 5.19 0 012-2 6.26 6.26 0 015.79 0 5.19 5.19 0 012 2 5.91 5.91 0 01.75 3 5.82 5.82 0 01-.77 3 5.43 5.43 0 01-2.08 2 6.08 6.08 0 01-2.93.71 5.84 5.84 0 01-2.78-.71zm4.3-2.1a2.73 2.73 0 001.06-1.11 3.68 3.68 0 00.4-1.8 3.36 3.36 0 00-.83-2.43 2.75 2.75 0 00-2-.85 2.69 2.69 0 00-2 .85 3.39 3.39 0 00-.8 2.43 3.48 3.48 0 00.78 2.43 2.63 2.63 0 002 .85 2.85 2.85 0 001.39-.41zm16.4-7.36a4.82 4.82 0 011.22 3.49v6.5h-2.8V9.55a2.88 2.88 0 00-.66-2 2.35 2.35 0 00-1.8-.71 2.42 2.42 0 00-1.83.71 2.89 2.89 0 00-.67 2v6.12H212V4.6h2.79V6a4 4 0 011.43-1.12 4.34 4.34 0 011.91-.41 4.29 4.29 0 013.21 1.21zm6.33 9.68A4.34 4.34 0 01226 14a3.37 3.37 0 01-.69-1.86h2.82a1.51 1.51 0 00.63 1.06 2.19 2.19 0 001.37.42 2.16 2.16 0 001.25-.32 1 1 0 00.45-.82.87.87 0 00-.55-.81 10.16 10.16 0 00-1.75-.59 15.31 15.31 0 01-2-.62 3.47 3.47 0 01-1.36-1 2.62 2.62 0 01-.57-1.78 2.91 2.91 0 01.53-1.68 3.61 3.61 0 011.52-1.19 5.6 5.6 0 012.33-.44 4.76 4.76 0 013.16 1 3.65 3.65 0 011.3 2.66h-2.68a1.47 1.47 0 00-.62-1.03 2 2 0 00-1.31-.39 2.1 2.1 0 00-1.17.28.93.93 0 00.15 1.63 8.15 8.15 0 001.74.59 15.27 15.27 0 012 .62 3.43 3.43 0 011.35 1 2.76 2.76 0 01.58 1.77 3 3 0 01-.52 1.72 3.61 3.61 0 01-1.52 1.19 5.88 5.88 0 01-2.31.43 5.94 5.94 0 01-2.46-.48z" fill="#fff"/></svg>