<svg xmlns="http://www.w3.org/2000/svg" viewBox="0 0 233.18 105.12"><path fill="#c1c0c0" d="M163.27.1v104.96l11.74-11.65V11.72L163.27.1z"/><path fill="#b79040" d="M128.29.13l11.63 11.55.01 23.39h11.67l11.67 11.65V.1l-34.98.03z"/><path fill="#b79040" d="M163.26 46.63l-11.73 11.7h-11.75v23.45h11.73l11.76 11.7-.01-46.85z"/><path fill="#fff" d="M81.63 11.64h46.66V.08H93.28L81.63 11.64"/><path fill="#c1c0c0" d="M128.25 46.73l-11.66-11.71.05-11.71 11.65-11.67-.04 35.09"/><path d="M139.92 11.64L128.29.08v11.56l-.04 35.09 11.68-11.7-.01-23.39z"/><path d="M93.28 11.64h35.01l-11.65 11.67h-11.79l.04 11.71-11.61 11.7V11.64"/><path fill="#fff" d="M93.28 46.72l11.61-11.7h11.7l11.66 11.71-34.97-.01"/><path fill="#c1c0c0" d="M93.28 46.72V11.64H81.63l-.02 23.38 11.67 11.7"/><path fill="#fff" d="M69.94 46.72l11.67-11.7 11.67 11.7H69.94"/><path fill="#c1c0c0" d="M81.58 93.46H69.94V46.72h11.64v46.74"/><path d="M81.58 46.72v46.74l11.68-11.7V58.31l23.37.06 11.62-11.64-46.67-.01"/><path fill="#c1c0c0" d="M0 .02v105.1l11.63-11.65V11.63L0 .02z"/><path fill="#fff" d="M11.63 11.63L.02 0h23.3L11.63 11.63zm0 35.08h23.31L23.28 35.06 11.63 46.71z"/><path fill="#c1c0c0" d="M58.29 22.62V11.68L46.62 0v11.38L23.27 34.9l11.71 11.82 23.72-23.7-.41-.4z"/><path d="M11.63 11.63v35.08L23.32 35V0L11.63 11.63z"/><path d="M34.98 46.72H11.64l-.01-.02v.02h-.01.01v46.75L0 105.12h23.31V58.41l11.67-11.69zm23.33-35.01l-.02 11.69-23.35 23.31h11.67L69.94 23.4V0L58.31 11.71z"/><path fill="#fff" d="M58.3 11.7L46.62 0h23.32L58.3 11.7zM34.98 46.72l11.64-.01 23.32 23.37H58.3L34.98 46.72z"/><path fill="#c1c0c0" d="M58.3 70.09L34.98 46.72 23.31 58.41l23.35 23.38v23.33L58.3 93.46V70.09z"/><path d="M69.95 70.08H58.3v23.38l-11.64 11.66h23.28l.01-35.04z"/><path fill="#fff" d="M93.26 81.76l-11.68 11.7h46.67l-11.66-11.67-23.33-.03z"/><path fill="#c1c0c0" d="M116.59 81.79l11.66 11.67V46.73l-11.62 11.64-.04 23.42z"/><path d="M151.6 35.03v11.7h-23.35v46.73l11.65-11.68V58.34h11.7v-.02l11.67-11.6-11.67-11.69z"/><path fill="#fff" d="M139.9 81.78l-11.65 11.68h23.32V81.78H139.9zm-11.65-35.05l11.68-11.7h11.67v11.7h-23.35"/><path d="M174.92 46.74l11.6-11.73V.06l-11.6 11.6v35.08z"/><path fill="#fff" d="M174.92 11.66L163.27.06h23.25l-11.6 11.6z"/><path fill="#b79040" d="M163.28 93.47l-11.79 11.65 11.78-.03.01-11.62z"/><path d="M221.53 46.72l-46.61.02V93.4l-11.65 11.66h23.25v-46.7h23.39l11.62-11.64z"/><path fill="#fff" d="M174.92 46.74l11.6-11.73h23.37l11.64 11.71-46.61.02z"/><path fill="#c1c0c0" d="M221.53 11.66v35.06l-11.64-11.71v-35l11.64 11.65zm0 35.06l-11.62 11.64v46.7l11.61-11.63.01-46.71z"/><path d="M163.27 93.48l-11.7-11.7v11.69l-69.99-.01H69.94l11.64 11.66h70.01v-.07l11.68-11.57zm58.26-81.82l-.01 81.77-11.61 11.63 23.27.06V.06l-11.65 11.6z"/><path fill="#fff" d="M221.53 11.66L209.89.01l23.29.05-11.65 11.6z"/><path fill="#31543a" d="M46.62 0v11.65L23.3 35.01 23.32 0h23.3zM23.31 58.41v46.71h23.35V81.77L23.31 58.41zm23.31-11.7l23.32-23.37V0l23.34.08-11.65 11.56-.02 23.38-11.67 11.7.01 23.36-23.33-23.37zm23.32 46.75l11.64 11.66H69.94V93.46z"/><path fill="#b79040" d="M93.26 58.31l23.37.06-.04 23.42-23.33-.03V58.31zm11.59-35l.04 11.71h11.7l.05-11.71h-11.79z"/><path fill="#f69488" d="M186.52.06v34.95h23.37v-35l-23.37.05zm0 58.3h23.39v46.7h-23.39v-46.7z"/><path fill="#b79040" d="M163.27 105.06V.66"/></svg>