<svg xmlns="http://www.w3.org/2000/svg" viewBox="0 0 441.85 374.04"><g fill="#88b9ba"><path d="M168.08 374h-8.41a158.29 158.29 0 01-53-10.34 161.81 161.81 0 01-26.86-13.33 184.26 184.26 0 01-21.91-15.61c-3.42-2.84-6.73-5.83-10-8.89-2.49-2.34-4.81-4.85-7.1-7.38a134.56 134.56 0 01-17.38-24.6A171.41 171.41 0 018.9 259.41a195.28 195.28 0 01-6.49-29.22c-.85-6-1.44-12-1.83-18.1a190.65 190.65 0 01-.49-19.56c.21-5 .63-10.09 1.09-15.13a214.41 214.41 0 015.5-32A207 207 0 0116 117.12a201.13 201.13 0 0117.1-32.9 187 187 0 0111.47-15.94C48.25 63.69 52 59.19 56.1 55c10.14-10.34 21-19.69 33.15-27.2A183.24 183.24 0 01148.62 4a151.81 151.81 0 0117.24-2.69c4.21-.4 8.42-.73 12.64-1A153.25 153.25 0 01195 .15q8.55.33 17.09 1.44a194 194 0 0127.5 5.52 167 167 0 0126.11 9.7 142.88 142.88 0 0125.23 15 33.25 33.25 0 013.9 3.19c1.15 1.17 2 .72 3-.08 4.67-3.64 9.37-7.24 14.07-10.85l13.6-10.44c.24-.18.51-.31 1-.6a30.22 30.22 0 01-.72 5.74c-1.12 7.25-2.29 14.48-3.44 21.72l-3.39 21.25-3.21 20c-1 6.61-2.12 13.22-3.17 19.83a356 356 0 00-.73 5c-.15 1-.44 1.67-1.68 1.67H203.49a1.11 1.11 0 01-.79-.37l30.46-23.58c-2.4-1-4.42-2-6.49-2.78a165.42 165.42 0 00-27.36-7.94 169.88 169.88 0 00-17.12-2.41 126.61 126.61 0 00-16.28-.54 131.88 131.88 0 00-21 2.38 111.18 111.18 0 00-24.54 8 106.31 106.31 0 00-23 14.53 112.38 112.38 0 00-13.99 13.27 157.72 157.72 0 00-17.64 24.81 129 129 0 00-12.47 29.08 173.13 173.13 0 00-5 22.72c-.9 6.12-1.47 12.25-1.84 18.43a160 160 0 00-.17 16.53 176.48 176.48 0 006 39.34 161.25 161.25 0 0011.44 29.61 113.71 113.71 0 0026.34 35.17 125.55 125.55 0 0029.13 20.29 129.25 129.25 0 0028.54 10.31 177.1 177.1 0 0017.77 3.11c3.06.4 6.15.51 9.23.7 2.44.14 4.89.22 7.32.22 5.56 0 11.14-.22 16.7-.76 3.26-.32 6.52-.64 9.78-1 4.25-.5 8.47-1.21 12.67-2 7.44-1.4 14.81-3.2 22.11-5.28 8.14-2.31 16.21-4.89 24.14-7.95a6.41 6.41 0 011.72-.46 23.63 23.63 0 01-5.26 3.63 214.69 214.69 0 01-40.68 18.61 192.21 192.21 0 01-28.21 7.26 167.76 167.76 0 01-17 2.27c-3.27.23-6.59.56-9.92.56zm258.36-258.72c2.09.32 4.19.62 6.28 1a48.43 48.43 0 018.39 2.27c.69.25.85.58.68 1.41-1.39 6.44-2.72 12.89-4 19.35-.73 3.53-1.44 7.08-2.1 10.63-.23 1.22-.53 1.58-1.75 1a34.07 34.07 0 00-17.19-4 20.77 20.77 0 00-14.43 6.39c-5 5-7.75 11.46-10.1 18.15-1.26 3.56-2.1 7.24-3 10.91-.08.35-.41.73-.07 1s.67-.07.94-.25a30.18 30.18 0 018.07-3.74 32.57 32.57 0 0113.23-1.4 23.47 23.47 0 0110.71 3.66c5.45 3.66 8.26 9.25 9.69 15.78a54.26 54.26 0 01.9 14.83 129.89 129.89 0 01-2.64 18 130.54 130.54 0 01-6.51 23.27A81.09 81.09 0 01412.1 274c-5 6.25-10.56 11.6-17.49 15.29a39.15 39.15 0 01-21.74 4.52 29 29 0 01-11.53-3c-6.15-3.26-10-8.6-12.32-15.41a59.76 59.76 0 01-2.74-15.5 62.54 62.54 0 01-.24-6.56q.33-9.27 1.39-18.47c.82-7.26 2.05-14.43 3.46-21.56 1.2-6 2.4-12.1 3.88-18.08s3-11.87 4.79-17.68a161.8 161.8 0 0110.6-26.34 95 95 0 018.31-13.49c6.41-8.4 13.91-15.27 23.61-19a43.88 43.88 0 0113.92-3.13.94.94 0 00.81-.31zM376.63 252a25.9 25.9 0 00.49 6.08c1.3 5.62 5.49 6.63 9.56 3.93 3.35-2.22 4.93-6 6.4-9.66 2.6-6.51 4-13.41 5.39-20.3 1.17-5.92 2.5-11.8 1.92-18-.44-4.75-3.3-8-7.71-8-2.93 0-5.52 1.28-8.07 2.65a2.12 2.12 0 00-.94 1.56c-.26 1.09-.52 2.17-.74 3.26-1.6 8-3.27 15.92-4.75 23.91a68.7 68.7 0 00-1.55 14.57z"/><path d="M256.3 333.8c.5-1.28.94-2.58 1.5-3.83q4-8.91 8-17.8c1.91-4.24 3.85-8.46 5.76-12.7 2.59-5.74 5.14-11.49 7.74-17.22s5.28-11.53 7.9-17.31q7.33-16.19 14.64-32.37l9-19.94L324.67 182l9.27-20.52q6.92-15.32 13.83-30.64c1.6-3.57 3.16-7.16 4.72-10.75a1.83 1.83 0 011.85-1.28h22.21c1.28 0 1.26.38.77 1.45q-5.18 11.31-10.28 22.67c-2.94 6.56-5.83 13.16-8.78 19.71-2.69 6-5.45 11.92-8.14 17.9-2.91 6.45-5.76 12.93-8.65 19.39q-2.88 6.44-5.8 12.85c-4 8.81-8 17.61-12 26.43-2.89 6.41-5.68 12.87-8.57 19.28-2.64 5.88-5.37 11.72-8 17.6q-6.78 15-13.51 29.94-6.21 13.88-12.36 27.78zm-54.05-75.4a88.73 88.73 0 016-29.09 63.94 63.94 0 0115.32-23.06 36.63 36.63 0 016.44-5.19c1.41-.85 1.08-1.41.16-2.3a26.2 26.2 0 01-6-8.9 34.67 34.67 0 01-2.68-12.23 66.75 66.75 0 017.15-32.52 54.42 54.42 0 0120.75-22.92 43.91 43.91 0 0116.56-6.09c9.12-1.31 18-.47 25.83 5.18 6.38 4.59 10.14 11.14 11.68 19.22a46.17 46.17 0 01.77 8.58 67 67 0 01-1.51 13.13 62.4 62.4 0 01-8 20.94 50.33 50.33 0 01-14.52 15.55c-1.74 1.18-1.63 1.15-.11 2.6a27.6 27.6 0 015.56 7.89 41.16 41.16 0 014 17.39 82.63 82.63 0 01-3.88 25.79A68.57 68.57 0 01275 274.21c-7.68 10.2-17.49 16.92-29.53 19.6a42.31 42.31 0 01-12 1c-7.37-.49-14.38-2.22-20.3-7.35a29 29 0 01-7.77-10.84c-2.31-5.42-3.12-11.19-3.15-18.22zm32.44-3.4a34.63 34.63 0 00.29 5.75c.87 4.8 4.5 7.1 8.81 5.61a11.08 11.08 0 005.49-4.52c3.29-4.89 5-10.53 6.4-16.3a124.37 124.37 0 002.95-17.27 20.23 20.23 0 00-1.1-9.45c-1.73-4.33-5.94-4.66-9.7-2.54-2.75 1.56-4.5 4.19-5.89 7.07a64.81 64.81 0 00-5.14 16.18c-.97 5.11-2.32 10.17-2.11 15.47zm38.11-101.31c0-.7.05-1.4 0-2.09-.19-2-.4-4-1.55-5.61-1.83-2.57-4.84-3.12-7.84-1.71-3.74 1.76-5.46 5.34-7 9a65.78 65.78 0 00-3.89 14.09c-.91 4.92-1.77 9.86-1 14.91.63 3.94 2.82 6.92 6.84 6.32a8.84 8.84 0 005.74-3.75c3-3.91 4.54-8.51 5.76-13.28a81.08 81.08 0 002.94-17.88zM171.38 292h-15.45c-1.14 0-1.52-.31-1.24-1.59Q156.86 280.2 159 270l9.66-47.15c1.47-7.19 2.91-14.37 4.39-21.55 2-9.89 4.09-19.77 6.11-29.65.95-4.63 1.82-9.28 2.79-13.91.27-1.28-.07-1.34-1.09-1-5 1.57-9.95 3.07-14.92 4.63-1.08.34-1.51.44-1.18-1.13 2.27-10.87 4.46-21.76 6.65-32.65a1.7 1.7 0 011.39-1.43l18.68-5.68c2.29-.7 4.61-1.32 6.89-2.11a10 10 0 013.38-.47h20.4c1.31 0 1.62.33 1.31 1.77-2.08 9.72-4.08 19.45-6.08 29.18-1.47 7.13-2.89 14.27-4.36 21.4-2 9.94-4.11 19.87-6.15 29.82-1.17 5.72-2.28 11.46-3.46 17.18-2.13 10.36-4.3 20.7-6.44 31.06-1.79 8.68-3.54 17.38-5.32 26.07-1.11 5.47-2.31 10.92-3.33 16.4-.23 1.21-.72 1.27-1.6 1.27-5.14-.05-10.24-.05-15.34-.05z"/></g></svg>