<svg xmlns="http://www.w3.org/2000/svg" viewBox="0 0 309.78 309.78">
    <path d="M154.89,0A154.89,154.89,0,1,0,309.78,154.89,154.89,154.89,0,0,0,154.89,0ZM119,116.19a125.23,125.23,0,0,1-9.35,21c-2.06,3.59-3.77,7.41-6.47,10.57-5,5.9-10.08,11.84-16.58,16.2a55.26,55.26,0,0,1-10.34,5.93,8.28,8.28,0,0,1-9-1.32c-2.23-1.88-2.48-5.17-1.53-8.18a14,14,0,0,1,2.83-4.81c6.21-7.34,9.61-15.95,11.39-25.28,1.85-9.65,2.16-19.42,2.2-29.21A32.64,32.64,0,0,1,82.39,95a7.14,7.14,0,0,1,3.67-5.3c2.94-1.58,5.83-3.2,9.22-3.77,2.31-.38,3.25-1.85,3.43-4.51.05-.64,0-1.28,0-1.92a18,18,0,0,0-.43-4.39c-.46-2.13.12-3.67,1.57-4.52a5.41,5.41,0,0,1,5.74.26,4.36,4.36,0,0,1,1.48,3.51,18.74,18.74,0,0,1-.77,6.86,11.12,11.12,0,0,0-.64,3.38A2.19,2.19,0,0,0,107.42,87c2,.53,4,.78,5.79,1.79a16.05,16.05,0,0,1,8.28,11.92C122.32,106.07,120.75,111.21,119,116.19Z"
          fill="#fefefe"/>
    <path d="M154.9,13.29a141.6,141.6,0,1,0,141.6,141.6A141.6,141.6,0,0,0,154.9,13.29ZM119,116.19a125.23,125.23,0,0,1-9.35,21c-2.06,3.59-3.77,7.41-6.47,10.57-5,5.9-10.08,11.84-16.58,16.2a55.26,55.26,0,0,1-10.34,5.93,8.28,8.28,0,0,1-9-1.32c-2.23-1.88-2.48-5.17-1.53-8.18a14,14,0,0,1,2.83-4.81c6.21-7.34,9.61-15.95,11.39-25.28,1.85-9.65,2.16-19.42,2.2-29.21A32.64,32.64,0,0,1,82.39,95a7.14,7.14,0,0,1,3.67-5.3c2.94-1.58,5.83-3.2,9.22-3.77,2.31-.38,3.25-1.85,3.43-4.51.05-.64,0-1.28,0-1.92a18,18,0,0,0-.43-4.39c-.46-2.13.12-3.67,1.57-4.52a5.41,5.41,0,0,1,5.74.26,4.36,4.36,0,0,1,1.48,3.51,18.74,18.74,0,0,1-.77,6.86,11.12,11.12,0,0,0-.64,3.38A2.19,2.19,0,0,0,107.42,87c2,.53,4,.78,5.79,1.79a16.05,16.05,0,0,1,8.28,11.92C122.32,106.07,120.75,111.21,119,116.19Z"
          fill="#12403d"/>
    <path d="M170.74,76.08a14.84,14.84,0,0,1-.92,5.32,8.8,8.8,0,0,0-.71,3.39,2.59,2.59,0,0,0,2.58,2.86,15.64,15.64,0,0,1,13.57,17.69,61.12,61.12,0,0,1-5.16,17.4c-3.39,7.72-6.68,15.56-11.63,22.41-6,8.28-12.93,15.75-21.95,21-2.82,1.63-5.56,3.33-8.86,3.76a9.67,9.67,0,0,1-3.22-.07,5.76,5.76,0,0,1-5-5.76,9.19,9.19,0,0,1,1.08-5,36.29,36.29,0,0,1,4.27-6.22c3.95-4.64,6.25-10.07,7.81-15.88A134.15,134.15,0,0,0,146,118.36c.54-4.45.28-9,.46-13.42.12-2.76.08-5.52.13-8.28a7.74,7.74,0,0,1,3.84-6.79,24.77,24.77,0,0,1,8.81-3.65A4.35,4.35,0,0,0,163.11,82a22.67,22.67,0,0,0-.16-4.66c-.09-1.36-.16-2.72-.22-4.07a2.72,2.72,0,0,1,1.88-2.77,4.06,4.06,0,0,1,5.87,3.09A11.13,11.13,0,0,1,170.74,76.08Z"
          fill="#ec2727"/>
    <path d="M149.9,111.43c-.05-2.56-.32-5-.39-7.33a14.56,14.56,0,0,1,6.48-13c.81-.57,1.69-.77,2.43.19s.62,1.65-.26,2.63c-2.58,2.89-4.75,5.93-4.85,10.1-.08,3.15-.16,6.3-.32,9.45a7,7,0,0,1-.42,2.22c-.25.64-.6,1.17-1.4,1a1.41,1.41,0,0,1-1.31-1.47A32.11,32.11,0,0,0,149.9,111.43Z"
          fill="#fef9f9"/>
    <path d="M166.31,79.71a3.79,3.79,0,0,1-1.67-2.38,9.36,9.36,0,0,1-.19-4.73c.06-.28.15-.57.44-.66s.6.15.8.4a3.08,3.08,0,0,1,.42.72A12.74,12.74,0,0,1,166.31,79.71Z"
          fill="#fdf2f2"/>
    <path d="M231.51,76.18a12.73,12.73,0,0,0-.35-3.23c-.45-2-2.29-3-4.68-2.75-1.95.24-3,1.44-2.95,3.53,0,1.15.06,2.31.19,3.47a26.13,26.13,0,0,1,.28,4.06c-.12,2.93-1.44,4.47-4.3,5a24.47,24.47,0,0,0-8.85,3.84,7.6,7.6,0,0,0-3.48,6.5c-.06,3.52-.1,7-.19,10.55s0,7-.35,10.43a127.42,127.42,0,0,1-3.4,19.46c-1.52,5.66-3.73,11-7.54,15.49a43.34,43.34,0,0,0-4.27,6.07,10.22,10.22,0,0,0-1.35,4.43,6.06,6.06,0,0,0,5.63,6.89,10.54,10.54,0,0,0,2.63-.05c3.25-.45,6-2.11,8.74-3.72,9-5.23,16-12.65,22-21,5.29-7.39,8.86-15.8,12.39-24.17A57.38,57.38,0,0,0,246,106a17.23,17.23,0,0,0-3.94-13.54,13.84,13.84,0,0,0-9.38-4.78c-2-.26-2.7-1-2.71-3.07a7.89,7.89,0,0,1,.61-3A13.56,13.56,0,0,0,231.51,76.18Z"
          fill="#fefefe"/>
    <path d="M231.51,76.18a13.56,13.56,0,0,1-.94,5.38,7.89,7.89,0,0,0-.61,3c0,2,.7,2.81,2.71,3.07a13.84,13.84,0,0,1,9.38,4.78A17.23,17.23,0,0,1,246,106a57.38,57.38,0,0,1-4.37,15c-3.53,8.37-7.1,16.78-12.39,24.17-5.95,8.32-12.93,15.74-22,21-2.78,1.61-5.49,3.27-8.74,3.72a10.54,10.54,0,0,1-2.63.05,6.06,6.06,0,0,1-5.63-6.89,10.22,10.22,0,0,1,1.35-4.43,43.34,43.34,0,0,1,4.27-6.07c3.81-4.53,6-9.83,7.54-15.49a127.42,127.42,0,0,0,3.4-19.46c.37-3.45.27-7,.35-10.43s.13-7,.19-10.55a7.6,7.6,0,0,1,3.48-6.5,24.47,24.47,0,0,1,8.85-3.84c2.86-.54,4.18-2.08,4.3-5a26.13,26.13,0,0,0-.28-4.06c-.13-1.16-.17-2.32-.19-3.47,0-2.09,1-3.29,2.95-3.53,2.39-.29,4.23.78,4.68,2.75A12.73,12.73,0,0,1,231.51,76.18Zm-20.83,38.6c-.09,1,.29,1.75,1.35,1.9s1.26-.65,1.48-1.4a9.14,9.14,0,0,0,.22-1.29,71.11,71.11,0,0,0,.22-7.3c.05-4.22.82-8.17,3.78-11.41.48-.53,1-1.07,1.44-1.59a1.57,1.57,0,0,0,.28-2.06c-.69-1.22-1.65-1.35-3-.32a14.75,14.75,0,0,0-6.09,13.44A86.12,86.12,0,0,1,210.68,114.78Zm16.76-38.15a11.29,11.29,0,0,0-.32-3c-.23-.71-.42-1.73-1.26-1.69s-.69,1.13-.75,1.77A7.75,7.75,0,0,0,226.26,79c.15.22.32.52.64.45s.38-.42.41-.67C227.39,78.06,227.4,77.34,227.44,76.63Z"
          fill="#ec2727"/>
    <path d="M210.68,114.78a86.12,86.12,0,0,0-.32-10,14.75,14.75,0,0,1,6.09-13.44c1.35-1,2.31-.9,3,.32a1.57,1.57,0,0,1-.28,2.06c-.49.52-1,1.06-1.44,1.59-3,3.24-3.73,7.19-3.78,11.41a71.11,71.11,0,0,1-.22,7.3,9.14,9.14,0,0,1-.22,1.29c-.22.75-.47,1.54-1.48,1.4S210.59,115.8,210.68,114.78Z"
          fill="#fef9f9"/>
    <path d="M227.44,76.63c0,.71-.05,1.43-.13,2.14,0,.25-.09.6-.41.67s-.49-.23-.64-.45a7.75,7.75,0,0,1-1.15-5.24c.06-.64-.15-1.72.75-1.77s1,1,1.26,1.69A11.29,11.29,0,0,1,227.44,76.63Z"
          fill="#fef9f9"/>
    <path d="M136.43,171.19a8.86,8.86,0,0,1-3.92-.83,8.53,8.53,0,0,1-3.68-2.86,8.29,8.29,0,0,1-.79-1.61,9.1,9.1,0,0,1-.62-2.88c0-.24,0-.49,0-.74a8.64,8.64,0,0,1,.72-4c1.32-3,3.6-5.36,5.61-7.87a35.78,35.78,0,0,0,6.83-14.49c.63-2.67,1.43-5.3,2-8a52.55,52.55,0,0,0,1-7.16c.28-4,.38-8,.5-12,.12-3.77.23-7.54.23-11.32,0-4.74,2.46-8.87,7.13-10.09,2-.53,3.94-1.23,5.9-1.87,2.52-.82,3.39-2.11,3.43-4.79a27,27,0,0,0-.71-6.52c-.82-3.39,1-5,4.06-5.78a2,2,0,0,1,.52-.06h3.3a2.12,2.12,0,0,1,.54.06c3.07,1.25,5.46,2.67,5.12,7.06-.22,2.81-.11,5.61-1.56,8.18-.46.8.09,1.42.74,1.84a4.18,4.18,0,0,0,1.48.61,17.63,17.63,0,0,1,6.19,2.64,13.19,13.19,0,0,1,5.12,5.94c.37.89.7,1.8,1,2.72a3.77,3.77,0,0,1,.17.81,41.44,41.44,0,0,1,.58,8.7,5.73,5.73,0,0,1-.07.58c-.27,1.39-.39,2.83-.78,4.19-.73,2.52-1.45,5.06-2.43,7.5-1.28,3.19-2.75,6.31-4.25,9.41-1.62,3.38-3.28,6.75-5.08,10-1.23,2.26-2.57,4.47-4,6.62a57.29,57.29,0,0,1-4.29,5.54,103.21,103.21,0,0,1-7.93,8.76A96.26,96.26,0,0,1,149,166.6a43.09,43.09,0,0,1-7.22,3.94,8,8,0,0,1-2.86.59Zm10.1-72.9c0,.16,0,.46,0,.62,0,2.83-.13,5.6-.12,8.43a86.92,86.92,0,0,1-.92,14.94c-.78,4.59-1,9.21-2.32,13.73a51.62,51.62,0,0,1-8.35,17.21c-1.93,2.52-4.11,4.3-4.58,7.62-.26,1.82-.52,3.81.77,5.34,2.22,2.63,5,3.66,8.34,2.61a33.93,33.93,0,0,0,5-2.32,57.81,57.81,0,0,0,15.39-11.58c1.5-1.57,2.92-3.22,4.39-4.82.92-1,1.9-2,2.77-3.06,3.34-4.1,5.56-8.88,8-13.51,2-3.75,3.57-7.7,5.28-11.59a58.21,58.21,0,0,0,4.7-15.88c.53-4.11,0-7.89-2.46-11.29-1.6-2.22-3.22-4.46-6-5.43a43.67,43.67,0,0,0-5.38-1.47c-1.82-.36-2.3-2.8-1.89-4.5.69-2.91,1.74-4.86,1.53-7.93-.17-2.52-1-3.75-3.38-4.37-3.05-.78-5.06,1.72-4.37,4.77a18.42,18.42,0,0,1,0,7.54,4.09,4.09,0,0,1-3.41,3.3A24.32,24.32,0,0,0,151,90a11.62,11.62,0,0,0-2.94,2.34C146.65,94.07,146.65,96.15,146.53,98.29Z"
          fill="#fff"/>
    <path d="M197.27,171.19a8.88,8.88,0,0,1-3.93-.83,8.58,8.58,0,0,1-3.68-2.86,10.07,10.07,0,0,1-1.41-4.49c0-.24,0-.49,0-.74a8.64,8.64,0,0,1,.72-4c1.32-3,3.6-5.36,5.62-7.87a35.89,35.89,0,0,0,6.82-14.49c.63-2.67,1.43-5.3,2-8a55.87,55.87,0,0,0,1-7.16c.27-4,.37-8,.49-12,.12-3.77.23-7.54.23-11.32,0-4.74,2.46-8.87,7.13-10.09,2-.53,3.94-1.23,5.9-1.87,2.52-.82,3.39-2.11,3.43-4.79a27,27,0,0,0-.71-6.52c-.82-3.39,1-5,4.06-5.78a2,2,0,0,1,.53-.06h3.29a2.12,2.12,0,0,1,.54.06c3.07,1.25,5.46,2.67,5.12,7.06-.22,2.81-.11,5.61-1.56,8.18-.46.8.09,1.42.74,1.84a4.18,4.18,0,0,0,1.48.61,17.63,17.63,0,0,1,6.19,2.64,13.13,13.13,0,0,1,5.12,5.94c.37.89.7,1.8,1,2.72a3.25,3.25,0,0,1,.17.81,41.44,41.44,0,0,1,.58,8.7,5.73,5.73,0,0,1-.07.58c-.27,1.39-.39,2.83-.78,4.19-.73,2.52-1.45,5.06-2.43,7.5-1.28,3.19-2.75,6.31-4.24,9.41-1.63,3.38-3.29,6.75-5.09,10-1.23,2.26-2.57,4.47-4,6.62a59,59,0,0,1-4.3,5.54,103.21,103.21,0,0,1-7.93,8.76,96.26,96.26,0,0,1-9.52,7.08,43.09,43.09,0,0,1-7.22,3.94,8,8,0,0,1-2.86.59Zm10.09-72.9c0,.16,0,.46,0,.62,0,2.83-.13,5.6-.12,8.43a86.92,86.92,0,0,1-.92,14.94c-.78,4.59-1,9.21-2.32,13.73a51.62,51.62,0,0,1-8.35,17.21c-1.93,2.52-4.11,4.3-4.58,7.62-.26,1.82-.52,3.81.77,5.34,2.22,2.63,5,3.66,8.34,2.61a33.93,33.93,0,0,0,5-2.32,57.81,57.81,0,0,0,15.39-11.58c1.5-1.57,2.93-3.22,4.39-4.82.92-1,1.9-2,2.77-3.06,3.34-4.1,5.57-8.88,8-13.51,2-3.75,3.57-7.7,5.28-11.59a57.87,57.87,0,0,0,4.7-15.88c.53-4.11,0-7.89-2.46-11.29-1.6-2.22-3.22-4.46-5.95-5.43a43.52,43.52,0,0,0-5.37-1.47c-1.83-.36-2.3-2.8-1.9-4.5.69-2.91,1.74-4.86,1.53-7.93-.17-2.52-1-3.75-3.38-4.37-3-.78-5.06,1.72-4.37,4.77a18.25,18.25,0,0,1,0,7.54,4.09,4.09,0,0,1-3.41,3.3A24.32,24.32,0,0,0,211.86,90a11.62,11.62,0,0,0-2.94,2.34C207.48,94.07,207.48,96.15,207.36,98.29Z"
          fill="#fff"/>
    <path d="M72.55,171.19a8.88,8.88,0,0,1-3.93-.83,8.58,8.58,0,0,1-3.68-2.86,9.61,9.61,0,0,1-.79-1.61,9.1,9.1,0,0,1-.62-2.88c0-.24,0-.49,0-.74a8.64,8.64,0,0,1,.72-4c1.32-3,3.6-5.36,5.62-7.87a35.89,35.89,0,0,0,6.82-14.49c.63-2.67,1.43-5.3,2-8a55.87,55.87,0,0,0,1-7.16c.27-4,.37-8,.49-12,.12-3.77.23-7.54.23-11.32,0-4.74,2.46-8.87,7.13-10.09,2-.53,3.94-1.23,5.9-1.87,2.52-.82,3.39-2.11,3.43-4.79a27,27,0,0,0-.71-6.52c-.82-3.39,1-5,4.06-5.78a2,2,0,0,1,.52-.06H104a2.12,2.12,0,0,1,.54.06c3.07,1.25,5.46,2.67,5.12,7.06-.22,2.81-.11,5.61-1.56,8.18-.46.8.09,1.42.74,1.84a4.18,4.18,0,0,0,1.48.61,17.63,17.63,0,0,1,6.19,2.64,13.13,13.13,0,0,1,5.12,5.94c.37.89.7,1.8,1,2.72a3.25,3.25,0,0,1,.17.81,41.44,41.44,0,0,1,.58,8.7,5.73,5.73,0,0,1-.07.58c-.27,1.39-.39,2.83-.78,4.19-.73,2.52-1.45,5.06-2.43,7.5-1.28,3.19-2.75,6.31-4.24,9.41-1.63,3.38-3.29,6.75-5.09,10-1.23,2.26-2.57,4.47-4,6.62a59,59,0,0,1-4.3,5.54,103.21,103.21,0,0,1-7.93,8.76,96.26,96.26,0,0,1-9.52,7.08,43.09,43.09,0,0,1-7.22,3.94,8,8,0,0,1-2.86.59Zm10.09-72.9c0,.16,0,.46,0,.62,0,2.83-.13,5.6-.12,8.43a86.92,86.92,0,0,1-.92,14.94c-.78,4.59-1,9.21-2.32,13.73a51.62,51.62,0,0,1-8.35,17.21c-1.93,2.52-4.11,4.3-4.58,7.62-.26,1.82-.52,3.81.77,5.34,2.22,2.63,5,3.66,8.34,2.61a33.93,33.93,0,0,0,5-2.32,57.81,57.81,0,0,0,15.39-11.58c1.5-1.57,2.93-3.22,4.39-4.82.92-1,1.9-2,2.77-3.06,3.34-4.1,5.57-8.88,8-13.51,2-3.75,3.57-7.7,5.28-11.59A57.87,57.87,0,0,0,121,106c.53-4.11,0-7.89-2.46-11.29-1.6-2.22-3.22-4.46-6-5.43a43.52,43.52,0,0,0-5.37-1.47c-1.83-.36-2.3-2.8-1.9-4.5.69-2.91,1.74-4.86,1.53-7.93-.17-2.52-1-3.75-3.38-4.37-3-.78-5.06,1.72-4.37,4.77a18.25,18.25,0,0,1,0,7.54,4.09,4.09,0,0,1-3.41,3.3A24.32,24.32,0,0,0,87.14,90a11.62,11.62,0,0,0-2.94,2.34C82.76,94.07,82.76,96.15,82.64,98.29Z"
          fill="#fff"/>
    <path d="M68.12,204.42h9.52l-1,4c2.23-2.58,4.63-4.57,8-4.57S89.36,205.63,90,208c2-2.1,4.67-4.15,8.08-4.15,4.4,0,6.77,3.13,5.37,8.67L97,238.24H87.42l6-23.53c.47-1.86,0-3-1.41-3s-2.52,1.15-3,3l-6,23.53H73.49l6-23.53c.47-1.86,0-3-1.41-3s-2.52,1.15-3,3l-6,23.53H59.57Z"
          fill="#fff"/>
    <path d="M106.47,222.36l.47-1.87c2.74-10.83,9.6-16.67,16.44-16.67s9.91,5.72,7.07,17l-1.11,4.39H115.22c-.57,4.34,1.17,5.78,4,5.78,2.56,0,5-1,7.78-2.47l-1.4,7.89a21.1,21.1,0,0,1-9.85,2.59C108.06,239,103.72,233.25,106.47,222.36ZM122,219.05c1.4-5.54,1.06-7.59-.58-7.59s-3,1.75-4.68,7.59Z"
          fill="#fff"/>
    <path d="M135,223l.82-3.25c3.12-12.34,7.76-15.89,12.16-15.89,3.48,0,4.74,2.29,5.53,4.63l3.68-14.56h9.59l-11.21,44.35h-9.59l1-4.09c-2,2.41-4.4,4.7-7.88,4.7C134.69,238.85,131.84,235.29,135,223Zm14.91,0,.81-3.19c1.32-5.24,1.07-7.89-.71-7.89s-3.29,2.65-4.62,7.89l-.8,3.19c-1.32,5.23-1.12,7.82.65,7.82S148.55,228.19,149.87,223Z"
          fill="#fff"/>
    <path d="M170.64,204.42h9.59l-8.54,33.82H162.1Zm2.53-10.53H183l-2,7.88h-9.79Z" fill="#fff"/>
    <path d="M180,230.3l6.54-25.88h9.59l-6,23.59c-.47,1.87.11,3,1.42,3s2.57-1.08,3-3l6-23.59h9.59l-8.55,33.82h-9.59l1-4c-2.12,2.41-4.57,4.58-8,4.58C180.14,238.85,178.72,235.35,180,230.3Z"
          fill="#fff"/>
    <path d="M216.62,204.42h9.52l-1,4c2.23-2.58,4.64-4.57,8-4.57s4.73,1.81,5.39,4.15c2-2.1,4.66-4.15,8.07-4.15,4.41,0,6.77,3.13,5.37,8.67l-6.51,25.75h-9.53l6-23.53c.47-1.86,0-3-1.41-3s-2.52,1.15-3,3l-5.95,23.53H222L228,214.71c.47-1.86,0-3-1.41-3s-2.52,1.15-3,3l-5.94,23.53h-9.53Z"
          fill="#fff"/>
</svg>