<svg xmlns="http://www.w3.org/2000/svg" viewBox="0 0 576 576">
    <path d="M295,475c-5.32,0-10.4.06-15.72.06a4.37,4.37,0,0,0-1-.11c-4.69-.3-9.4-.44-14.08-.9-4-.39-7.92-1-11.86-1.52a149.61,149.61,0,0,1-21.15-4.62,146,146,0,0,1-29.47-12.19c-5.77-3.21-11.49-6.56-17-10.14-5.74-3.72-11.33-7.68-16.83-11.75-4.07-3-8-6.28-11.81-9.58a37.66,37.66,0,0,1-4.35-4.4c-3.34-4-6.74-7.89-9.87-12a175,175,0,0,1-15-24.17c-2.61-5-5-10-7.4-15.09-1.68-3.58-3.21-7.22-4.66-10.9-2-5.21-4-10.48-6-15.83-1.61.19-3.27.54-4.94.57-2.16.05-4.33-.16-6.5-.25a28.78,28.78,0,0,1-10.64-2.63c-6.19-2.76-10.68-7.62-14.89-12.69a54.65,54.65,0,0,1-8.39-14.12,63.56,63.56,0,0,1-4.52-16.63c-.12-1-.25-1.93-.43-2.9l-.05-.58.13-12.41a2.41,2.41,0,0,0,.07-.71c.3-2,.51-4.07.86-6.09a55.8,55.8,0,0,1,9.71-23.53,46.9,46.9,0,0,1,16.51-14.26A38.9,38.9,0,0,1,98.29,232a21.15,21.15,0,0,1,6.63.41l8.32,2c3.5-6.79,7.08-13.74,10.65-20.65-5-2.49-10.17-4.92-15.19-7.58a22.71,22.71,0,0,1-8.4-7.28c-3.72-5.43-1.73-11.65,2.36-15.46a114.44,114.44,0,0,1,9.43-7.5c9.37-7,18.73-14,28.81-20,8.21-4.85,16.45-9.7,24.85-14.22a188.22,188.22,0,0,1,17.09-8c6.84-2.85,13.79-5.45,20.77-8a163.34,163.34,0,0,1,20.94-6c8.32-1.79,16.64-3.44,25.17-3.64a9.94,9.94,0,0,0,1.56-.37c-1.94-3.32-3.63-6.47-5.56-9.47-3.26-5.09-4.07-10.28-1-15.71a17.69,17.69,0,0,1,7.92-6.92c6-3,12.55-4,19.18-4.57.62-.05,1.23-.19,1.85-.29h14.25a7.5,7.5,0,0,0,1.13.29,82.87,82.87,0,0,1,9.36.95,76.12,76.12,0,0,1,11.86,3.49,14.39,14.39,0,0,1,7.84,6.7c2.71,5.25,2.09,10.55-.24,15.63-1.43,3.15-3.52,6-5.37,9a6.19,6.19,0,0,0,1,.36c3.38.48,6.8.55,10.17,1.09,6,1,12.1,1.87,18,3.38,6.91,1.78,13.78,3.82,20.57,6a210.52,210.52,0,0,1,26,10.57c4.93,2.38,9.87,4.8,14.64,7.52,6.46,3.69,13,7.35,19.23,11.37,6.81,4.38,13.44,9,20,13.75,4.33,3.1,8.58,6.3,12.7,9.67,3,2.46,6.23,4.92,8.66,7.95,3.89,4.84,2.75,11-2.21,14.35-5.35,3.62-11.11,6.62-16.69,9.9-1.67,1-3.3,2-4.64,2.85l10.19,22a32.29,32.29,0,0,1,15.59-2.2A39,39,0,0,1,479,237.31a55.53,55.53,0,0,1,16.1,11.82,36.45,36.45,0,0,1,7.32,11.53,45.46,45.46,0,0,1,3.21,17.95,6.27,6.27,0,0,0,0,1.41,3.49,3.49,0,0,1,0,.55,12.32,12.32,0,0,0,0,1.36c0,.95.11,2.19,0,3.15a192.81,192.81,0,0,1-3.48,22.6c-1.63,7.55-4.14,14.75-8.77,21.09A35.08,35.08,0,0,1,481,339.51a39.66,39.66,0,0,1-12.75,3.84,45.9,45.9,0,0,1-12.61-.06c-1-.13-1.66,0-1.92,1.21-.43,2.08-1.18,4.09-1.79,6.13a143.23,143.23,0,0,1-12.47,29.13c-2.57,4.63-5.19,9.24-8.09,13.66-3.4,5.17-7.07,10.18-10.82,15.11-3,4-6.15,7.8-9.49,11.46a116.6,116.6,0,0,1-9.16,8.9c-4.5,4-9.09,7.84-13.8,11.53a164,164,0,0,1-27.81,17.26,178.62,178.62,0,0,1-17,7.21c-5.87,2.07-11.81,3.95-17.79,5.7a95.62,95.62,0,0,1-13.26,2.6c-5.42.76-10.88,1.17-16.33,1.75A4.06,4.06,0,0,0,295,475Z"
          fill="#fff"/>
    <path d="M493.26,282.35v9.9a9.33,9.33,0,0,0-.29,1.27c-.13,1.25-.11,2.52-.33,3.75a44.06,44.06,0,0,1-4.52,13.62c-3.54,6.39-8.17,11.61-15,14.65A22.79,22.79,0,0,1,460,327.2a31.42,31.42,0,0,1-12.12-4.83c-.17.53-.33.94-.43,1.36-.85,3.59-1.44,7.26-2.57,10.75-2.68,8.3-5.73,16.48-8.42,24.78-2.1,6.48-4.49,12.78-8.47,18.41-3.58,5.07-6.88,10.35-10.67,15.27a104.93,104.93,0,0,1-10.48,11.81c-4.8,4.59-9.94,8.86-15.13,13-4.79,3.84-9.74,7.53-14.81,11s-10.5,6.74-15.83,10a94.06,94.06,0,0,1-16,7.77c-4.4,1.65-8.87,3.13-13.36,4.52-9.78,3-19.55,6.11-29.41,8.91A63.91,63.91,0,0,1,285,462.41a4.78,4.78,0,0,0-1.14.29H281.3a9.61,9.61,0,0,0-1.29-.29,61.36,61.36,0,0,1-7.45-.64c-5.24-1.1-10.43-2.45-15.62-3.79-7.62-2-15.21-4-22.82-6A98.18,98.18,0,0,1,224,449.13c-4.48-1.72-8.82-3.8-13.16-5.87S202.22,439,198,436.73c-4.62-2.51-9.18-5.16-13.69-7.87a72.62,72.62,0,0,1-12.07-9.08c-4.63-4.32-9.41-8.5-13.9-13-4-4-7.86-8.22-11.54-12.54a116.86,116.86,0,0,1-9.24-12.07,121.46,121.46,0,0,1-8.12-14.69c-3.16-6.77-6.06-13.69-8.63-20.71a176.64,176.64,0,0,1-5-17,70.61,70.61,0,0,1-1.17-8.39,39.89,39.89,0,0,1-11.42,4,28.78,28.78,0,0,1-14-.64,24.33,24.33,0,0,1-11.85-8.37,46.62,46.62,0,0,1-9.44-22.66c-.16-1.16-.38-2.31-.58-3.47v-7.92c.29-1.84.52-3.7.88-5.53,1.38-7.1,2.94-14.06,8.12-19.71a65,65,0,0,1,9.58-9c4.55-3.28,9.43-5.65,15.32-5.31a17.94,17.94,0,0,1,12.17,5.93,16.57,16.57,0,0,1,4,8.14c.16.73.4,1.44.68,2.41.28-2.86.41-5.42.81-7.94a69.34,69.34,0,0,1,6.66-19.73c2.57-5.19,5.37-10.28,8.21-15.34a16.41,16.41,0,0,1,3.37-4.31c2.18-1.93,5-2.37,7.88-2.47,4.74-.17,9.49-.2,14.24-.31,3.41-.07,6.83-.18,10.24-.28l9.38-.28c3.8-.1,7.6-.18,11.39-.29,2.7-.07,5.4-.18,8.1-.29.19,0,.38-.18.57-.28h1.71c.05.07.09.21.15.21,3.25.25,5.71,1.92,7.85,4.19.94,1,1.77,2.08,2.78,3q6.19,5.52,12.49,10.94c1.09.94,2.18,2.12,3.48,2.51a62,62,0,0,0,7.82,1.49c4.89.8,9.79,1.54,14.68,2.3,4.11.65,8.21,1.37,12.33,1.93,3.53.48,7.08.82,10.63,1.16,3.92.37,7.82,1.07,11.79.58,3.27-.39,6.58-.47,9.84-.89,5-.66,10.11-1.33,15.11-2.3,8.55-1.65,17.06-3.54,25.58-5.36a6.67,6.67,0,0,0,2.72-.94c2.12-1.71,4.09-3.6,6.12-5.42,1.32-1.2,2.69-2.36,3.95-3.63,2.41-2.42,4.72-4.94,7.15-7.34a8.57,8.57,0,0,1,2.66-1.8,14.57,14.57,0,0,1,3.06-.62H362a4.29,4.29,0,0,0,1,.28c3.41.12,6.83.21,10.24.3l11.24.28c3.37.09,6.73.21,10.1.28q7.62.16,15.24.28c2.48,0,5,0,7.46,0a21,21,0,0,1,4,.21c3.13.63,4.87,3,6.16,5.58q4.89,9.84,9.54,19.79c1.57,3.39,2.89,6.89,4.29,10.36,1,2.49,2,5,3.08,7.8,1.47-1.26,2.8-2.35,4.09-3.49a32.34,32.34,0,0,1,3.73-3.32c4.86-3.09,10.14-4.85,15.81-2.61a45.62,45.62,0,0,1,11.39,6.79,32,32,0,0,1,9.18,10.91c2.59,5.24,3.5,11,4.2,16.71C492.86,279.38,493.06,280.87,493.26,282.35Z"
          fill="#96b8b9"/>
    <path d="M396.17,294.68c-.2,1.33-.37,2.67-.61,4-.91,5.16-2.87,9.81-6.78,13.44a22.56,22.56,0,0,1-11.13,5.36,36.59,36.59,0,0,1-21-2A60.07,60.07,0,0,1,338,303.71c-4.42-4-8.86-8-12-13.16a37.46,37.46,0,0,1-5.38-14.8,21.81,21.81,0,0,1,2-12.61,25.14,25.14,0,0,1,9.34-9.88,30.58,30.58,0,0,1,12.62-4.52,35.07,35.07,0,0,1,15.06,1.3,57,57,0,0,1,30.69,24.1A36,36,0,0,1,395.57,288c.18,1.34.4,2.67.6,4Z"
          fill="#fff"/>
    <path d="M215.9,248.11c1.22.26,2.44.51,3.65.78a30.32,30.32,0,0,1,16.2,9.67,20.27,20.27,0,0,1,5.43,13.49c.13,6.76-2.24,12.68-5.54,18.37a83.44,83.44,0,0,1-10.59,14,51.24,51.24,0,0,1-24.48,15.07c-1.76.5-3.6.72-5.4,1.06h-4.5c-.16-.09-.31-.27-.46-.27A20.76,20.76,0,0,1,180,316.93c-5-2.93-8.85-6.82-10.57-12.48-.64-2.12-1.06-4.31-1.59-6.47v-9.31c.1-.15.27-.3.28-.46a29.77,29.77,0,0,1,3-10.66,47.55,47.55,0,0,1,9.37-12.43,88.28,88.28,0,0,1,10.55-9,39.18,39.18,0,0,1,14.49-6.85c1.74-.39,3.48-.75,5.23-1.12Z"
          fill="#fff"/>
    <path d="M279.57,237.43h-5.8a3.67,3.67,0,0,0-.87-.28c-3-.11-6.06-.13-9.07-.32-3.43-.21-6.87-.42-10.26-.89-4.69-.65-9.37-1.38-14-2.35A35.84,35.84,0,0,1,226,228.13c-3.06-2.19-5.8-4.83-8.71-7.23q-6.08-5-12.19-10c-.91-.73-1.91-1.93-2.86-1.93-7.95,0-15.89.22-23.83.33q-13.74.18-27.48.29c-4,0-7.92,0-11.88,0a4,4,0,0,1-1.64-.37c-5.24-2.58-10.47-5.2-15.7-7.8-2-1-4-2-6-2.9-3-1.36-5.7-3-7.08-6.18v-2.93c1.13-1.57,2-3.49,3.42-4.65,4.38-3.49,8.88-6.85,13.53-10,9.28-6.25,18.76-12.2,28-18.5a105,105,0,0,1,18.19-9.59c5.83-2.48,11.64-5,17.47-7.5,4.05-1.72,8-3.69,12.18-5.06,7.43-2.44,14.94-4.71,22.52-6.68a131.1,131.1,0,0,1,14.65-2.68c4.19-.6,8.43-.88,12.66-1.2,4.82-.36,9.65-.6,14.47-.9,1.84-.12,3.68-.28,5.28-.4-2.1-2.49-4.42-5-6.43-7.71a47.27,47.27,0,0,1-7.59-14.34c-1.57-5.19-.17-8.89,4.64-11.21,4.38-2.11,9.09-2.5,13.81-2.93.73-.07,1.46-.19,2.18-.29h8.12c1.24.2,2.47.46,3.71.57a43,43,0,0,1,12.1,3.35,5.38,5.38,0,0,1,2.15,1.76c1.87,2.44,1.51,5.23.65,7.84-2.3,7-6.07,13.14-10.38,19-.67.91-1.38,1.81-2.11,2.76,2.29.26,4.32.56,6.36.71,3.43.25,6.88.33,10.31.62s7,.67,10.49,1.19c4.34.67,8.68,1.42,13,2.32,5.54,1.16,11.2,2,16.52,3.88,7.48,2.6,14.69,6,22,9.05l16,6.67c3.31,1.37,6.74,2.52,9.93,4.15,4,2,7.77,4.37,11.58,6.68,7.66,4.64,15.35,9.23,22.88,14.08a124.1,124.1,0,0,1,12.37,9.14,41.22,41.22,0,0,1,8.85,11v2.93a18.52,18.52,0,0,1-2.64,2.31c-1.78,1.06-3.72,1.87-5.54,2.87-5,2.73-9.95,5.52-14.94,8.26-4,2.21-8.49,2.48-12.84,2.57-7.15.13-14.31-.3-21.47-.5-2.44-.07-4.89-.19-7.33-.29-5-.2-10-.41-14.95-.58-3.6-.13-7.2-.2-10.81-.3a1.24,1.24,0,0,0-.43,0c-.52.14-1.16.15-1.52.48-3,2.77-6,5.61-8.95,8.42-4.35,4.1-8.72,8.17-13,12.31a9.08,9.08,0,0,1-4.54,2.49c-3.75.74-7.51,1.51-11.29,2.09s-7.52,1-11.3,1.42c-2.61.28-5.23.4-7.85.61-4.75.38-9.5.81-14.25,1.14-2.73.19-5.47.21-8.2.32C280,237.16,279.77,237.34,279.57,237.43Z"
          fill="#96838c"/>
    <path d="M65.66,284.91v-2c.09-.89.21-1.77.25-2.66a59.28,59.28,0,0,1,3.53-17.87A35.11,35.11,0,0,1,104,239.26a15.11,15.11,0,0,1,12.4,6.6c.24.34.49.66.74,1l.4,0c2.13-14,9.9-25.47,16.87-37.7-2.49-1.48-4.83-3-7.3-4.31-4.42-2.33-9-4.46-13.37-6.82a18.69,18.69,0,0,1-6.69-5.68,1.79,1.79,0,0,1-.1-2.18,27.78,27.78,0,0,1,7.1-8.11q9.85-7.44,20-14.51a277.32,277.32,0,0,1,55.58-30.4c24-9.66,48.78-15.59,74.8-16,.54,0,1.07,0,1.86,0-3.37-5.13-6.55-10-9.69-14.8a13.94,13.94,0,0,1-1.52-3,21.26,21.26,0,0,1-1.27-4.91c-.37-4.51,2.81-8.9,7.74-10.36a91.68,91.68,0,0,1,9.26-1.76c1.87-.36,3.73-1.11,5.59-1.1,5.11,0,10.23.18,15.33.54A37.75,37.75,0,0,1,304,88.51c6.86,2.92,8.59,7,5.91,13.84-2.33,6-6.12,11.09-9.92,16.2l-2,2.66c.72,0,1.14,0,1.56,0a167.2,167.2,0,0,1,41.74,5,249.84,249.84,0,0,1,60.88,24.11,318.33,318.33,0,0,1,45.64,29.85,44.07,44.07,0,0,1,9.31,9.58c.76,1.11.9,2.11-.11,3-2.11,1.83-4.09,3.92-6.48,5.29-4.91,2.81-10.09,5.16-15.1,7.81-1.88,1-3.6,2.27-5.31,3.36,3.12,6.37,6.26,12.42,9.06,18.61s5.34,12.61,8.05,19.06c.25-.35.52-.66.72-1,2.61-4.58,6.7-6.73,11.89-6.92,8.05-.29,15.13,2.65,21.9,6.59a27.91,27.91,0,0,1,11,11.8,50.11,50.11,0,0,1,4.76,14.34c.49,2.88.78,5.79,1.16,8.68v6.81c-.38,3-.63,6-1.16,9-1.61,9.1-4.7,17.64-10.71,24.88-6.95,8.38-15.86,12.26-26.87,10.64-3.18-.46-6.28-1.43-9.38-2.15-1.64,5.69-3.2,11.58-5,17.39-3.28,10.37-6.95,20.62-12.46,30.08-9.85,16.95-23,31.12-38.35,43.27A213.94,213.94,0,0,1,316.92,459c-10.2,2.74-20.47,4.65-31.08,4.72a150.42,150.42,0,0,1-48.2-7.7,228.46,228.46,0,0,1-57.72-28.62,158.39,158.39,0,0,1-38.45-36.66c-13-17.52-21.4-37.08-26.7-58l-.9-3.5c-1.31.43-2.43.83-3.57,1.18-13.8,4.22-25.8.31-34.25-11.26-5.08-7-7.85-14.87-9.21-23.27C66.26,292.26,66.05,288.57,65.66,284.91Zm157,50.47-.17-.21-2.2,1.21a123.5,123.5,0,0,1-23.59,10.55c-5.75,1.78-11.58,3.41-17.61,3.78a41.38,41.38,0,0,1-27-8c-16.81-12-25.16-28.87-27-49-.84-9.38.91-18.46,4-27.28,6.15-17.28,17.7-29.57,34.92-36.51,14-5.66,28.73-6.75,43.67-5.81,4,.25,7.94.73,12,1.1-.09-.14-.13-.29-.23-.37q-8.19-6.91-16.38-13.81a2.26,2.26,0,0,0-1.31-.38c-3,0-6-.08-9,0-6.78.2-13.56.57-20.35.7-7.36.14-14.73,0-22.09.17a77.79,77.79,0,0,0-9.08,1.18,2.88,2.88,0,0,0-2.35,2c-.71,1.75-1.6,3.43-2.43,5.13-3.63,7.44-7.41,14.8-10.84,22.33-2.53,5.56-4,11.4-3.18,17.63a10.77,10.77,0,0,1,0,3.67c-2.61,12.45-9.81,21.44-23.36,23.91-3.35.62-6.65.59-9.74-1.2A2.32,2.32,0,0,1,88,283c.5-1.52,1.3-2.31,2.83-2.34a9.17,9.17,0,0,1,2.28.19,14.93,14.93,0,0,0,10.65-1.63,27.22,27.22,0,0,0,7.79-6.18,17,17,0,0,0,4.61-10.31c.53-10.57-9.35-18.85-20.06-16.85-7,1.32-12.15,5.29-16,11.06a48.55,48.55,0,0,0-6.86,17.9c-1.77,9.06-2.17,18.12.43,27.09,2.73,9.39,8.06,16.76,17.67,20.2,9.16,3.29,15.54,2.12,21.83-4.78,1.12-1.23,2.33-2.39,3.55-3.52a1.68,1.68,0,0,1,1.23-.42,6,6,0,0,1,4.54,3.56c.37.94-.87,2.51-1.41,3.78a1.7,1.7,0,0,1-.41.58c-2.81,2.79-3.11,6.12-2.15,9.73.24.87.43,1.74.68,2.61,2.58,9.11,6.49,17.73,10.14,26.46a144.17,144.17,0,0,0,42.68,56.77,195,195,0,0,0,54,30.82,197.07,197.07,0,0,0,49.81,11.55c3.54.37,7.1,1,10.71.31,2-.39,4-.51,6-.77,5.55-.72,11.15-1.15,16.62-2.23A181.19,181.19,0,0,0,337.85,448a176.08,176.08,0,0,0,45.76-25c9.71-7.48,18.61-15.88,27.42-24.36a76,76,0,0,0,16.39-22.06c3.68-7.72,7.1-15.58,10.38-23.47,2.36-5.67,4.59-11.41,6.37-17.27,1.69-5.54,1.47-11.13-1.79-16.27-.94-1.49-1.05-2.54.19-3.76a17.3,17.3,0,0,1,3.63-2.36c.69-.4,1.15,0,1.66.57a35.46,35.46,0,0,0,4.33,4.5c8.93,7.06,21.72,6.68,29.83-.86,3.9-3.62,6.21-8.24,7.77-13.22,3.27-10.43,3.11-21,.63-31.5-1.67-7.12-4.41-13.77-9.25-19.42-6.92-8.09-17.48-9.92-26.17-4.59-6.31,3.88-8.67,10.57-6.1,17.45a23.35,23.35,0,0,0,9.25,11.43c3.52,2.36,7.27,4,11.71,3.15a31.64,31.64,0,0,1,4.14-.3c1.62-.07,2.16.43,2.26,2a4.23,4.23,0,0,1-3,4.48c-2.92,1.05-5.85.57-8.77,0a28,28,0,0,1-22.72-30,17.9,17.9,0,0,0-.95-8.36c-.63-1.58-1-3.24-1.6-4.85-3.8-10.81-7.76-21.54-14.71-30.89a2.34,2.34,0,0,0-2.09-1.1c-6.07-.11-12.14-.29-18.22-.43q-20.65-.48-41.31-.9a3.38,3.38,0,0,0-2,.71c-5.09,4.22-10.14,8.5-15.2,12.77-.37.31-.71.65-1.09,1,4.19-.34,8.23-.76,12.28-1a95.15,95.15,0,0,1,34.41,4.09c16.88,5.37,30.44,15,39.39,30.42a60.12,60.12,0,0,1,8.43,27.1,66.19,66.19,0,0,1-2.43,20.62c-3.31,12.41-9.49,23.09-20,30.95-12.33,9.22-26.39,11.38-41.35,9.31a96.4,96.4,0,0,1-28.69-9.07c-.54-.26-1.09-.5-2-.93l1.12,1.61c5.38,7.65,10.9,15.19,16.09,23A130.72,130.72,0,0,1,376.17,389a2.3,2.3,0,0,1,0,1.77c-1.09,1.71-2.81,1.85-3.93.13a96.14,96.14,0,0,1-4.75-8.39c-1.78-3.44-3.1-7.15-5.16-10.41-5.48-8.65-11.21-17.14-16.9-25.66-3.26-4.89-6.54-9.77-10-14.53a59.1,59.1,0,0,0-5.17-5.49l-1.25,3c-1.69,4.16-2.93,8.57-5.15,12.43-5.26,9.09-12.51,16.36-22.27,20.8-11.73,5.33-23.68,5.95-35.72.91a51,51,0,0,1-20.08-15.19c-5.33-6.57-10.48-13.3-11.06-22.61a19.82,19.82,0,0,0-1.47,1.48c-3.75,4.91-7.51,9.8-11.21,14.74-6.14,8.15-12.29,16.29-16.68,25.57a22.06,22.06,0,0,1-2.8,4.26,14.78,14.78,0,0,1-2.86,2.54,1.72,1.72,0,0,1-1.46-.09,15.4,15.4,0,0,1-2-1.52,58.83,58.83,0,0,1,3.51-6.6c4.43-6.32,9-12.55,13.62-18.76C216.37,343.34,219.53,339.39,222.63,335.38ZM279.69,361c8,0,13.52-.75,18.77-2.66,15.66-5.7,24.65-16.58,26.16-33.21a2.83,2.83,0,0,0-1.41-3,52.33,52.33,0,0,1-4.31-3.3c-5.72-4.56-11.29-9.33-17.86-12.76-11.3-5.89-22.88-6.38-34.47-1.28a120.86,120.86,0,0,0-14.93,8.37,49.21,49.21,0,0,0-11.17,9.48,2.78,2.78,0,0,0-.74,1.72c.41,9.79,3.78,18.37,11.08,25.17A43.35,43.35,0,0,0,279.69,361Zm110.17-67.52a50.83,50.83,0,0,0-.79-6.27c-4.24-16.64-14.44-28.08-30.95-33.62-5.87-2-12-2.94-18-.18-1.15.53-2.47.71-3.69,1.13a36,36,0,0,0-4.4,1.69c-6.51,3.29-10.88,13-9.5,20.83a30,30,0,0,0,6.92,14.12c6.87,8.21,15.57,14,25.14,18.7A32.47,32.47,0,0,0,372.36,313c8.16-.77,14.06-5.19,16.24-12.64A59.33,59.33,0,0,0,389.86,293.48Zm-213.37-1.36a30.61,30.61,0,0,0,2,11.24c3.19,8.13,9.28,12.15,18.06,11.89a40,40,0,0,0,16-4c14.06-6.66,23.47-17.35,27.79-32.16C243,270,240,261.72,232.44,257c-6-3.79-12.49-6.3-19.9-4.35-2.57.68-5.32.87-7.75,1.84a48.81,48.81,0,0,0-16.48,11.11C181,273,176.51,281.58,176.49,292.12ZM114.28,190.65c5.94,3.48,11.46,6.76,17,10a40.53,40.53,0,0,0,5,2.4c3.79,1.51,5.51.9,8.1-2.2,2.09-2.51,4.35-4.88,6.66-7.2,1.88-1.88,4.07-3.47,5.87-5.41,2.11-2.29,4-4.78,5.9-7.26.69-.9-.05-2.69-1-3.22-2.88-1.57-5.75-3.15-8.59-4.78s-5.47-3.26-8.22-4.88a2.41,2.41,0,0,0-2.87.15c-3.15,2.15-6.41,4.12-9.54,6.29-5.36,3.71-10.7,7.48-15.25,12.18A44.26,44.26,0,0,0,114.28,190.65Zm336.16-.2c-1.44-1.55-2.55-2.92-3.83-4.1a155.69,155.69,0,0,0-22.71-17.24c-2.21-1.39-4.15-1.87-6.33-.2a8,8,0,0,1-1,.52c-4.48,2.61-9.1,5-13.38,7.92-3,2-2.53,2-.67,4.38a169.08,169.08,0,0,0,19.31,20.74,3.37,3.37,0,0,0,4.24.7c5.49-2.75,11-5.4,16.51-8.2C445.14,193.66,447.59,192.1,450.44,190.45Zm-166.1-69.31,0-.21c1.63,0,3.26-.1,4.88,0a3.7,3.7,0,0,0,3.45-1.58,62.76,62.76,0,0,0,10.53-20.13,2.41,2.41,0,0,0-.57-2.47A10.52,10.52,0,0,0,297,93.15c-3.47-.82-7-1.46-10.52-2a16.48,16.48,0,0,0-8.21.44,14.52,14.52,0,0,1-2.83.41,77.57,77.57,0,0,0-9.18,1.41c-5,1.33-6.55,5.09-4,9.47a91,91,0,0,1,6.22,12.41,7.83,7.83,0,0,0,6.59,5C278.15,120.74,281.25,120.89,284.34,121.14ZM389.8,180.78a35.12,35.12,0,0,0-2.9-3.21c-2.59-2.23-5.16-4.53-7.95-6.49-4-2.79-8.12-5.32-12.24-7.89a2.08,2.08,0,0,0-1.79-.16c-5.57,3.42-11.15,6.85-15.75,11.53-2.59,2.64-2.95,1.89-.39,5.13,4.61,5.85,9.54,11.45,14.42,17.08,1.66,1.92,1.79,1.84,4.06.62a17.94,17.94,0,0,0,1.86-1.07c4.85-3.44,9.73-6.85,14.52-10.37C385.74,184.41,387.64,182.61,389.8,180.78Zm-172.36-3.15a14.47,14.47,0,0,0-1.89-2.32c-1.34-1.12-2.92-2-4.23-3.12-1.87-1.62-3.57-3.43-5.39-5.11a16.33,16.33,0,0,0-6.89-4.16,2,2,0,0,0-1.42.13c-3.83,2.49-7.64,5-11.42,7.57-2.56,1.73-5.16,3.43-7.55,5.38a24.88,24.88,0,0,0-3.49,4.07c-.42.53-.37,1,.29,1.54,5.16,3.91,10.23,7.94,15.44,11.77,2.33,1.71,4.93,3.06,7.42,4.55.9.54,1.55.4,2.23-.55,1.33-1.85,2.8-3.6,4.3-5.31,3.88-4.43,7.81-8.82,11.71-13.23C216.83,178.53,217,178.17,217.44,177.63ZM415,163.86c-.53-.29-.87-.5-1.24-.68-1.45-.72-3-1.33-4.35-2.14-4.65-2.72-9.22-5.55-13.89-8.23-3.3-1.89-6.64-3.74-10.47-4.47a2.78,2.78,0,0,0-2.49.58c-2.9,2.33-5.86,4.57-8.79,6.85-.74.57-1.47,1.17-2.29,1.82.65.69,1.17,1.3,1.76,1.84a118.72,118.72,0,0,0,18.26,13.9,42.43,42.43,0,0,0,4.22,2.09,2.38,2.38,0,0,0,2.53-.31c5.17-3.48,10.38-6.92,15.58-10.37C414.14,164.51,414.46,164.24,415,163.86Zm-222.24-6.42c-2.32-2-4.41-3.81-6.6-5.54a29.15,29.15,0,0,0-4.47-3,4.3,4.3,0,0,0-5,.25,14.74,14.74,0,0,1-2,1.11l-24.85,13.62A105.79,105.79,0,0,0,163.37,174c2.89,1.92,5.42,1.81,8.31,0a119.77,119.77,0,0,0,17.73-13.19C190.66,159.72,191.76,158.44,192.73,157.44Zm48.08,5.47c-3.27,3-6.44,5.83-9.44,8.8a32.88,32.88,0,0,0-3.22,4.31c-.63.87-.42,1.51.39,2.27,7,6.51,14,13.08,20.94,19.62.33.31.69.6,1.14,1l11.21-15.05C255.18,176.36,248.52,169.08,240.81,162.91Zm83.12.36-21.42,20.29L314,198.88l23-22.1C332.45,172.07,329.2,166.27,323.93,163.27ZM285.2,165.4a4.41,4.41,0,0,0,.69,1.27q5.85,5.22,11.75,10.38c.71.63,1.3.58,2-.18,2.56-2.69,5.22-5.28,7.84-7.91,3.09-3.09,6.17-6.2,9.27-9.28.58-.58,1.07-1.16.42-2-2.59-3.15-5.08-6.39-7.85-9.39a15.19,15.19,0,0,0-4.29-2.71,2,2,0,0,0-1.76.32,85.49,85.49,0,0,0-7.18,6.09c-3.16,3.14-6.14,6.46-9.07,9.82A16.67,16.67,0,0,0,285.2,165.4Zm-3.08-6.79c2.13-2,4.13-3.88,6.16-5.74q5.06-4.6,10.15-9.19c.51-.47,1-.83.24-1.58-3.12-3-6.09-6.14-9.32-9a68.14,68.14,0,0,0-6.46-4.63,1.27,1.27,0,0,0-1.76.17c-2.45,2-5,3.92-7.43,6-2.74,2.41-5.33,5-8,7.51a1,1,0,0,0,0,1.66C271.19,148.71,276.61,153.63,282.12,158.61ZM246,158.4a15.19,15.19,0,0,1,1.37,1c5.8,5.29,11.61,10.56,17.35,15.92,1,1,2,1.14,3,.34a43.35,43.35,0,0,0,5.36-4.43,83.86,83.86,0,0,0,5.4-6.77,1.3,1.3,0,0,0,0-1.89c-4.45-4.62-8.8-9.33-13.32-13.88a40.5,40.5,0,0,0-4.71-3.66Zm95.26,23c-8.07,7.78-15.8,15.23-23.79,22.95l42.65-.88c-.45-.6-.67-.94-.93-1.24-1.66-1.89-3.4-3.72-5-5.67-2.79-3.48-5.39-7.11-8.23-10.55A59.46,59.46,0,0,0,341.29,181.4ZM204.36,203.48l42.18.86.23-.5-24-22.24Zm190.78-18.8-24.8,17.95c14.78,1.24,29.38,3,44.46,2.51A192.56,192.56,0,0,0,395.14,184.68ZM149.56,205.13c15,.63,29.64-.75,44.25-2.21l.16-.39-25.21-17.76Zm112.79,6.64c1.12,1.49,2,2.77,3,4,3.85,4.83,7.76,9.62,12.72,13.41,3.76,2.88,5.32,2.87,8.93-.19,5.75-4.86,10.34-10.73,14.67-16.81.06-.09,0-.26,0-.4ZM359,159.25a6.43,6.43,0,0,0-.57-.63c-3.56-2.37-7.06-4.83-10.7-7.07a74.2,74.2,0,0,0-6.73-3.38,1.87,1.87,0,0,0-2.29.53c-2.88,2.7-5.83,5.33-8.75,8-1.32,1.2-1.33,1.57-.05,2.86,3.71,3.75,7.49,7.44,11.11,11.28,1.12,1.19,2,1.17,3.13.34,3.48-2.58,7-5.13,10.38-7.8C356,162.15,357.41,160.69,359,159.25Zm-32.15,67.8a1.37,1.37,0,0,0-.05-.4c-2.4-5-4.79-10.07-7.24-15.07a1.68,1.68,0,0,0-1.32-.68c-2.3,0-4.59.2-6.88.18a3.19,3.19,0,0,0-2.67,1.26c-4.66,5.25-9.36,10.47-14.05,15.7L292,231ZM272.25,231c-.52-.62-.84-1-1.18-1.4-4.9-5.49-9.84-10.94-14.67-16.49-1.21-1.38-2.38-2.2-4.34-2a34.63,34.63,0,0,1-5.57-.19,1.69,1.69,0,0,0-2,1.15c-2.14,4.63-4.38,9.22-6.58,13.82-.17.35-.3.73-.48,1.2Zm-36.34-73.18a13.55,13.55,0,0,1-1.13-.79c-3.06-2.78-6.14-5.54-9.15-8.37a2.27,2.27,0,0,0-3.18-.23c-5.32,3.42-10.67,6.81-16,10.22-.3.19-.57.43-1.06.81,1.36,1,2.67,1.78,3.78,2.77,2.22,2,4.23,4.25,6.55,6.13a37,37,0,0,0,5.56,3.35c.88.49,1.63.18,2.34-.62,2.24-2.52,4.57-5,6.86-7.42Zm58.9,25.75c-.2-.24-.39-.48-.6-.71-1.11-1.24-2.23-2.46-3.33-3.7-1.32-1.5-2.55-3.07-3.94-4.49a10,10,0,0,0-5.68-3.08,2.06,2.06,0,0,0-1.55.33c-3.41,3.5-6.76,7.06-10.13,10.6a1.41,1.41,0,0,0,0,2.12,79.4,79.4,0,0,0,11.64,11.69,1.73,1.73,0,0,0,2.43.05,43,43,0,0,0,10.5-11.32A12.29,12.29,0,0,0,294.81,183.56ZM188.13,145.4c.58.47.94.82,1.36,1.1,3.48,2.33,7,4.63,10.43,7a1.6,1.6,0,0,0,2,0c5.47-3.38,11-6.7,16.46-10.05.35-.21.67-.47,1.09-.76a22.64,22.64,0,0,0-8.52-5.56,3.44,3.44,0,0,0-2.17.09c-5.65,2.17-11.27,4.42-16.9,6.65Zm188.14-.21c-.69-.29-1.12-.49-1.56-.65-6-2.16-12-4.17-17.85-6.55-2.57-1.05-4.47-.92-6.54.88a66.94,66.94,0,0,1-5.68,4,10.07,10.07,0,0,0,1.06.82q8.49,5,17,10a1.43,1.43,0,0,0,1.24.05C368,151,372,148.15,376.27,145.19ZM271.7,206c2.51-.21,4.56-.33,6.59-.58,1.7-.21,2-.67,1-2.1a30.62,30.62,0,0,0-4.19-5.15c-2.62-2.48-5.47-4.72-8.24-7a3,3,0,0,0-3.41.1c-1.74,1.55-3.5,3.08-5.15,4.71a13.82,13.82,0,0,0-4,6.26c-.39,1.48-.1,2,1.46,2.17C261.21,205,266.67,205.52,271.7,206Zm23.22-.11.07.29c4.42-.63,8.87-1.13,13.26-1.94,2.45-.45,2.72-1.24,1.44-3.33a29.92,29.92,0,0,0-4.06-5.62,37.93,37.93,0,0,0-5.8-4.25,1.57,1.57,0,0,0-1.43,0c-4.49,3-8.72,6.3-11.92,10.69-1.4,1.92-.65,3.46,1.73,3.71S292.68,205.77,294.92,205.92Zm31,5.68c2.17,5,4.15,9.55,6.21,14.11a1.49,1.49,0,0,0,1.27.6,16.9,16.9,0,0,0,3.94-1.64,38.79,38.79,0,0,0,11.74-12,7.24,7.24,0,0,0,.5-2.32c-6.17,0-11.91-.11-17.65.06C330,210.41,328.07,211.14,325.93,211.6Zm-84.87-1.19H212.85c.63.53,1.05.9,1.49,1.26,5,4.16,10.08,8.28,15,12.51a1.91,1.91,0,0,0,2.85,0,6.46,6.46,0,0,0,.93-.88C236.42,219.46,238.6,214.94,241.06,210.41Zm92.55-66.06c-6.09-2.95-11.74-5.7-17.39-8.42a.84.84,0,0,0-.76,0c-2,1.67-4,3.36-6.37,5.42,2.61,2.39,5,4.68,7.52,6.86,1.76,1.53,3.63,2.92,5.49,4.33a1.67,1.67,0,0,0,2.48-.15c1.38-1.3,3-2.31,4.46-3.57S331.92,146,333.61,144.35Zm-102.54.13c3.07,2.69,6,5.15,8.82,7.78a1.84,1.84,0,0,0,2.79.19,68.7,68.7,0,0,0,12-11.24c.05-.06,0-.18.09-.6-2-1.49-4.08-3.1-6.22-4.66a1.08,1.08,0,0,0-.89.05C242.24,138.77,236.78,141.56,231.07,144.48Zm79.85-16.41c.37.18.74.37,1.13.54,5,2.19,10.05,4.36,15.08,6.56,3.14,1.37,6.24,2.85,9.43,4.11.88.35,2.32.54,2.95.07,2.19-1.64,4.13-3.61,6.22-5.49C337.13,130.23,332.92,130,310.92,128.07Zm-91.71,5.49c1.71,1.91,3.49,3.87,5.24,5.86a1.43,1.43,0,0,0,2,.35q13.1-5.7,26.24-11.31c.37-.16.71-.37,1.31-.68C241.74,128.13,230.39,131.65,219.21,133.56Zm40,4.37c6.47-3.8,12.79-8.51,13.81-10.33-1,.26-1.89.54-2.81.73-3.89.76-7.8,1.38-11.65,2.28a30,30,0,0,0-4.92,2.09Zm51.54-5.19c-5.68-2.71-16.28-5.4-19.84-5a80.47,80.47,0,0,0,14.05,9.43,1,1,0,0,0,.87-.11C307.41,135.67,309,134.24,310.71,132.74Z"/>
    <path d="M268.92,387.29c11.7.33,21.71,2.67,30.65,8.61a53.81,53.81,0,0,1,16.25,17.52c2.42,4,4.77,8.09,5.5,12.82a20.8,20.8,0,0,1,.22,3.53c-.05,2.83-.64,3.47-3.48,4.09a8.91,8.91,0,0,1-6.37-1,68.47,68.47,0,0,1-5.85-3.84,75.38,75.38,0,0,0-35.38-14c-4.14-.48-8.4.12-12.6,0-7.19-.21-13.94,2-20.86,3.37a20.53,20.53,0,0,1-6.26.24c-4.86-.55-6.57-4.26-3.75-8.27a53.4,53.4,0,0,1,12.12-12.76,52.8,52.8,0,0,1,15.64-7.88A64.14,64.14,0,0,1,268.92,387.29Z"/>
    <path d="M391.28,366.84c0-1.63,1.43-3.3,3.3-4.51.63-.41,1.86-.15,2.74.08a5.56,5.56,0,0,1,3.14,7.77c-.79,1.29-4.32,2.4-6.14,1.92S391.3,369.86,391.28,366.84Z"/>
    <path d="M158.83,379.32c.14,3.2-1.76,4.07-5.13,4.24-2.63.14-4.55-2.17-4.48-5,.05-2.06,2.73-5.1,4.48-5.09C156.92,373.48,158.93,375.78,158.83,379.32Z"/>
    <path d="M398.4,382.53c3.43.11,6.24,2.36,6,5.05-.25,2.53-1.64,4.35-4.87,4.2-2.9-.13-4.94-2.07-4.74-4.77C395,384.15,396.08,382.34,398.4,382.53Z"/>
    <path d="M176.08,388.71c-2.72,0-4.46-1.35-4.9-4a3.21,3.21,0,0,1,.29-1.88,6.07,6.07,0,0,1,4.69-3.36c2.69-.28,4.05.46,4.54,3.44C181.23,386.19,179.29,388.69,176.08,388.71Z"/>
    <path d="M411,224.36c0-2.21,2-4.93,3.7-5,2.64,0,5.86,2.79,5.86,5.12a4.73,4.73,0,0,1-4.93,4.48C412.59,229,411,227.38,411,224.36Z"/>
    <path d="M392.56,224.22c-1.7.26-2.86-1.08-3.71-2.66s-.26-3.3.82-4.74c1.56-2.07,3.13-2.21,5.95-.56,2.41,1.42,3.23,3.31,2.25,5.41S395.06,224.18,392.56,224.22Z"/>
    <path d="M148.54,227.93a11.61,11.61,0,0,1-1.95-.42,3.63,3.63,0,0,1-1.61-6,9.4,9.4,0,0,1,3.64-2.61,3.76,3.76,0,0,1,3.23.9,5.87,5.87,0,0,1,1.38,3.72C153.19,227.12,152.13,227.78,148.54,227.93Z"/>
    <path d="M175.73,220.1c.3,1.94-.81,3.11-2.4,3.74a5.33,5.33,0,0,1-5.67-.79c-1.93-1.63-2.17-2.88-.58-4.8a10,10,0,0,1,3.52-3c2.13-.87,4.63,1,5,3.43A13.57,13.57,0,0,1,175.73,220.1Z"/>
    <path d="M334.19,393.46a4.19,4.19,0,0,1-4.08,4.37,5.22,5.22,0,0,1-4.86-5c.05-2.41,1.51-4.29,3.23-4.32C331,388.43,334.75,391.05,334.19,393.46Z"/>
    <path d="M250.54,374.63a4.46,4.46,0,0,1-3.29,4.58c-3.06,1.17-5.75-.84-5.39-4a5.57,5.57,0,0,1,4.27-4.85C248.6,369.91,250.62,371.88,250.54,374.63Z"/>
    <path d="M320.55,374.59c0-.14,0-.28,0-.42.25-1.63.35-3.39,2.27-4.06,1.6-.56,4.18.64,5.32,2.35a4.41,4.41,0,0,1,0,5.16,4.78,4.78,0,0,1-5,1.55C321.46,378.6,320.54,377,320.55,374.59Z"/>
    <path d="M236.29,358.11c0,2.3-2.37,4.71-4.54,4.71-2.49,0-4.16-2.1-4.13-5.19,0-1.5,2.55-4,4-4C235.27,353.56,236.2,355.33,236.29,358.11Z"/>
    <path d="M139.59,239.63a4.18,4.18,0,0,1-2.67,4,5,5,0,0,1-5.32-1,2.91,2.91,0,0,1-.62-1.4c-.6-2.15,1.5-5.7,3.68-6.23a4.09,4.09,0,0,1,4.38,2.28A13.75,13.75,0,0,1,139.59,239.63Z"/>
    <path d="M427.61,243.24a3.84,3.84,0,0,1-4.16-4.1c0-2.33,1.51-4.66,3-4.69,2.72,0,5.65,2.42,5.67,4.78C432.17,241.83,430.59,243.22,427.61,243.24Z"/>
    <path d="M146.94,360.76c-.29,2.21-1.17,3.5-3,4.14-1.46.51-4.42-.09-5.1-1.35-.5-.95-.91-2.49-.47-3.28a16.76,16.76,0,0,1,3.54-4c.62-.58,3,.12,3.56,1A28,28,0,0,1,146.94,360.76Z"/>
    <path d="M343.4,382.81a4.27,4.27,0,0,1-3.77-3.81c0-2.1,2.24-4.76,4-4.71,2.79.06,5,1.85,4.81,4.19C348.15,381.5,347,382.65,343.4,382.81Z"/>
    <path d="M426.62,348.17c-2.66,0-3.9-1.07-3.9-3.68a7.81,7.81,0,0,1,.76-3.24c1-2.21,3.22-2.52,5.11-.87a10.57,10.57,0,0,1,1,1c1.07,1.21,1.9,2.6,1.38,4.22C430.39,347.48,429,348.18,426.62,348.17Z"/>
    <path d="M224.18,378.71a4.16,4.16,0,0,1-3.62,4.06,4.73,4.73,0,0,1-5-4.73c0-1.39,2.5-4,3.9-4A4.52,4.52,0,0,1,224.18,378.71Z"/>
    <path d="M412,353c2.6.14,5.72,2.46,5.65,4.21s-2.53,4.31-4.07,4.21c-2.12-.13-5.15-2.68-5-4.22S410.9,353,412,353Z"/>
    <path d="M170.77,366.18c0,1.86-2.41,4.13-4.29,4.08-1.56,0-4.31-2.54-4.28-3.89,0-1.62,3.26-4.59,5-4.55C169.43,361.88,170.81,363.53,170.77,366.18Z"/>
    <path d="M380.47,357.76a4.25,4.25,0,0,1-4.1,4.12,3.41,3.41,0,0,1-3.69-3.76c0-2.38,1.67-4.56,3.38-4.52A4.36,4.36,0,0,1,380.47,357.76Z"/>
    <path d="M191.72,367c0,1.72-1.48,3.62-2.86,3.62-2.41,0-5-2-5.14-3.86-.09-1.58,2.37-4.26,3.95-4.32C189.89,362.31,191.7,364.34,191.72,367Z"/>
    <path d="M348.91,270.09a7.18,7.18,0,0,1-3.2,5.92,10.57,10.57,0,0,1-14.49-2.65,7.87,7.87,0,0,1,.69-10.17c2.25-2.35,4.74-4.29,8.42-3.23a11.21,11.21,0,0,1,8.14,7.63A17.43,17.43,0,0,1,348.91,270.09Z"/>
    <path d="M192.05,271a19.33,19.33,0,0,1,1.23-3.86c2.61-4.57,8.29-7.57,14-4.62a7.82,7.82,0,0,1,4.27,8.62c-.95,5.88-7.59,9.9-13.32,8.07A9.12,9.12,0,0,1,192.05,271Z"/>
    <ellipse cx="389.86" cy="416.23" rx="91.87" ry="92.5" fill="#fff"/>
    <path d="M389.86,334.68c45.52,0,82.33,36.59,82.26,81.7s-37.06,81.52-82.43,81.4-82.16-36.7-82.09-81.65S344.56,334.64,389.86,334.68Zm-50.51,44.2c-17.56,22.35-18.44,59.48,7.88,83.45,26.13,23.79,61.31,18.94,80,4.14Zm101.11,74.76c.5-.67.81-1.05,1.09-1.45,10.49-15.3,13.88-32,9.8-50.06a62.79,62.79,0,0,0-50.11-47.49,63.46,63.46,0,0,0-48,10.54c-.74.52-.85.89-.14,1.51s1.49,1.46,2.22,2.19L435,448.06C436.79,449.84,438.53,451.67,440.46,453.64Z"
          fill="#c6302e"/>
</svg>