<svg xmlns="http://www.w3.org/2000/svg" viewBox="0 0 398.62 374.6"><path d="M340 0l3.47.15a1.49 1.49 0 01.45.15A15.21 15.21 0 01349 3.46a37 37 0 017 9.34c2.45 4.59 5 9.14 7.37 13.77a73.55 73.55 0 016.37 18.2 85.25 85.25 0 011.77 14.74c.13 4-.05 8.05-.23 12.07a38.19 38.19 0 01-.77 6.92c-1 4.4-2.18 8.78-3.57 13.08a50.7 50.7 0 01-5.32 11.36 2 2 0 000 1.59 112.22 112.22 0 016.52 16.19 142.18 142.18 0 016.32 28.83c.4 3.64.65 7.31 1 11a3.29 3.29 0 00.05.77l.18 16-.07 1.12c-.67 4.71-.91 9.49-1.64 14.19-.63 4.05-1.4 8.1-2.31 12.1a137.07 137.07 0 01-7 21.49 138.72 138.72 0 01-9 18.19 121.83 121.83 0 01-12.46 17.81c-3.74 4.34-7.49 8.67-11.41 12.84a58.49 58.49 0 01-4.34 4.14c-3.43 3-6.75 6.11-10.36 8.86a150.66 150.66 0 01-19.22 12.65 147.87 147.87 0 01-20.62 9.29 123.16 123.16 0 01-18.45 5.34c-5.22 1-10.46 2-15.72 2.78-3.48.5-7 .53-10.53.78-.21 0-.46.05-.72.06h-13.86c-.18 0-.37 0-.56-.06-3.11-.25-6.23-.39-9.33-.75-3.94-.46-7.9-.88-11.76-1.7a167.92 167.92 0 01-17.39-4.32 167.45 167.45 0 01-16.47-6.55A137 137 0 01141.55 294c-2.33-1.57-4.66-3.18-6.87-4.91-3-2.3-5.82-4.7-8.67-7-3 1.31-5.89 2.79-9 3.86-5.59 2-11.22 3.86-16.94 5.44a85.71 85.71 0 01-11.42 2.11c-3.6.5-7.25.75-10.89 1-1.46.08-2.91-.1-4.36-.1a33.05 33.05 0 01-4.73-.38c-3.11-.58-6.24-1.13-9.3-1.91a49 49 0 01-17.07-8.14l-2.93-2.15c-.12.67-.23 1.16-.3 1.67a27.16 27.16 0 01-3 11.12c-2.15 4-5.91 5.15-10 4.11a10.12 10.12 0 01-6.84-6c-1.26-2.81-2.14-5.78-3.18-8.68-2.76-7.77-5.48-15.55-8.29-23.3-2.11-5.8-4.36-11.54-6.48-17.34a37.3 37.3 0 01-1.03-3.9 11.08 11.08 0 01-.25-2.22c-.08-1.2.14-2.26.14-3.37 0-.18 0-.27.06-.44a7.91 7.91 0 017.86-7 28.82 28.82 0 018.65 1.1c10 2.79 20.05 5.61 30 8.6 4.17 1.25 8.28 2.71 12.38 4.16 2.4.85 4.91 1.46 7.26 2.42A10 10 0 0172.68 253c-.6 5.15-4.08 7.25-8.17 8.5-2.32.7-4.76 1-7.06 1.48.1.09.29.29.49.46a6.36 6.36 0 00.66.5c4.35 3 9.33 4 14.46 4.3A53.17 53.17 0 0086.84 267a99.45 99.45 0 0017.65-5.51c.55-.22 1.09-.5 1.65-.77-1-1.39-1.94-2.58-2.73-3.88-3.07-5-6.31-9.92-9.06-15.1-3.13-5.92-6-12-8.59-18.16-2.15-5.18-3.76-10.6-5.39-16a108.11 108.11 0 01-2.81-11.49c-.76-4.05-1.27-8.15-1.71-12.25-.47-4.33-.83-8.69-1-13.05 0-1.74 0-3.48.08-5.22.22-4.66.41-9.34.89-14a101.42 101.42 0 011.45-10.14c1.25-6 2.55-12 4.2-17.91a93.39 93.39 0 017.34-18.38 2 2 0 000-2C87.16 99.58 85.42 96 84 92.34a77.18 77.18 0 01-3.82-15.8 83.05 83.05 0 01-1-14.61c.07-3.18.23-6.36.51-9.53a55.63 55.63 0 011.43-8.4 100.15 100.15 0 017.15-19.42 123.17 123.17 0 0112-19.78 11.36 11.36 0 013.48-3.1 10.62 10.62 0 017.14-1.07 8.17 8.17 0 016.38 4.5 14.16 14.16 0 011.36 7.74 66.26 66.26 0 00.18 9.55c.2 3.3.54 6.6 1 9.88A33.65 33.65 0 00124 45.37a11.85 11.85 0 006.46 5.74 1.74 1.74 0 001.34-.25c1-.68 1.82-1.51 2.75-2.23A137.12 137.12 0 01156.23 35c4.51-2.28 9.24-4.18 13.92-6.06 2-.82 4.13-1.59 6.25-2.24 5.37-1.64 10.81-3.06 16.27-4.39 3-.74 6.13-1.27 9.22-1.77q3.88-.61 7.8-1c4-.38 7.95-.89 11.94-1.11a82.06 82.06 0 018.3 0c3.43.14 6.87.37 10.29.72 3.75.38 7.52.79 11.22 1.46a140.94 140.94 0 0121.32 5.46c3.65 1.27 7.25 2.71 10.86 4.08a124.1 124.1 0 0117.95 8.76 112.55 112.55 0 0117.33 11.9 1.79 1.79 0 001.56.18c3.1-1.45 5.09-4 6.66-6.94a36.7 36.7 0 003.42-9.48A80.37 80.37 0 00332.38 19c.07-3.28 0-6.56 0-9.84a10.9 10.9 0 011.88-6.21c1-1.45 2.06-2.87 3.86-2.9z" fill="#fff"/><path d="M110.49 31.59c1 7.71 4.25 14.43 8.54 20.74a13.19 13.19 0 002 2.23c3.39 3.23 7.65 4.69 12.07 5.77a1.37 1.37 0 001-.34 140.89 140.89 0 0126.64-17.88 125.23 125.23 0 0140.57-13.41A177.93 177.93 0 01224 27a139.78 139.78 0 0124.26 1.67c8.48 1.38 16.55 4.17 24.69 6.79 14.82 4.75 28 12.32 40.19 21.87l1.34 1.23c2.15 2.46 4.69 2 7.53.83 4.66-1.94 8.81-4.42 11.12-9.14 1.25-2.54 2.44-5.13 3.46-7.77 3.79-9.82 4.66-20 4-30.44a17.79 17.79 0 010-2.63c.11-1.35.84-1.69 1.93-.87a13.15 13.15 0 012.17 2 76.9 76.9 0 0110.89 17.87 83.6 83.6 0 017.85 31.45c.27 6.12-.61 12.12-1.58 18.13a64.48 64.48 0 01-8.71 23.08c-1.33 2.22-1.87 4-.15 6a1.51 1.51 0 01.18.26 126.8 126.8 0 0113.86 49c.16 1.9.31 3.81.46 5.71l-.11 10.8c0 .46 0 .87-.09 1.3-.59 5.52-.89 11.09-1.83 16.56a151.9 151.9 0 01-25.7 62.42c-6.94 9.88-14.94 18.82-24.68 26a199.49 199.49 0 01-37.31 21.27 120.29 120.29 0 01-37 9.91c-2.42.25-4.85.44-7.27.67l-11.35-.13h-.85c-4-.35-8-.61-11.95-1a129 129 0 01-23.17-4.43 151.22 151.22 0 01-41-19.5 110.9 110.9 0 01-17.48-14.24l-1.09.56c-11.37 6-23.25 10.6-36 12.76a60.3 60.3 0 01-20.41.28 63.34 63.34 0 01-36.78-20.06c-.2-.22-.43-.4-.66-.62-.1.16-.16.22-.17.29-.91 6.82-1.79 13.64-2.74 20.45a46.93 46.93 0 01-1.09 5.14 1.26 1.26 0 01-.87.83c-.3 0-.74-.41-.92-.76a15.42 15.42 0 01-.86-2.1q-9.27-26-18.55-51.91a7 7 0 01-.32-1.27c-.12-.9.33-1.44 1.21-1.36a12.4 12.4 0 012.69.57q16.28 5.13 32.55 10.3c6.13 1.94 12.29 3.81 18.4 5.8a3.53 3.53 0 012 1.41.36.36 0 01-.09.44 5.92 5.92 0 01-2.09 1c-5.21 1.24-10.44 2.39-15.65 3.59-2.43.56-4.84 1.18-7.4 1.81.34.43.54.72.77 1a49.72 49.72 0 0013.35 11c10.11 5.73 21.02 6.59 32.31 5.18a86.72 86.72 0 0026.79-8.29c2.62-1.25 5.15-2.67 7.78-4.05-.22-.29-.31-.42-.41-.54a144.1 144.1 0 01-28.54-47.92c-5.22-14.47-7.18-29.47-7.34-44.77a136.78 136.78 0 015.6-41.21 213 213 0 019.11-23.58 4.07 4.07 0 00-.34-3.84A67 67 0 0187.52 71a81.88 81.88 0 012.37-27.49 85 85 0 0117-34.32 4.41 4.41 0 011.22-.89" fill="#ff5ab0"/><path d="M367.33 162.06l-.11 10.7v.16c-.06.4 0 .82-.07 1.22-.6 5.52-.9 11.09-1.83 16.56a152 152 0 01-25.71 62.42c-6.94 9.88-14.94 18.82-24.68 26a199.49 199.49 0 01-37.31 21.27 120.29 120.29 0 01-37 9.91c-2.42.25-4.84.45-7.27.67l-11.35-.13h-.86c-4-.35-8-.61-11.94-1a128.91 128.91 0 01-23.2-4.51 151.16 151.16 0 01-41-19.5 110 110 0 01-17.49-14.24l-1.09.57c-11.37 6-23.25 10.59-36 12.75a60.3 60.3 0 01-20.41.28 63.34 63.34 0 01-36.78-20.06c-.2-.22-.43-.4-.66-.62-.09.16-.16.22-.17.29-.91 6.82-1.79 13.64-2.74 20.46a47.26 47.26 0 01-1.09 5.13 1.26 1.26 0 01-.87.83c-.3 0-.73-.41-.92-.76a14.91 14.91 0 01-.86-2.1q-9.27-26-18.55-51.91a7 7 0 01-.32-1.27c-.12-.9.33-1.44 1.22-1.36a13.06 13.06 0 012.68.57q16.27 5.13 32.55 10.3c6.14 1.94 12.29 3.81 18.4 5.8a4.28 4.28 0 011.74 1 .71.71 0 01-.12 1.08 6.93 6.93 0 01-1.77.75c-5.21 1.24-10.44 2.39-15.65 3.59-2.43.56-4.84 1.18-7.39 1.81.33.43.53.72.76 1a49.72 49.72 0 0013.35 11c10.18 5.81 21.11 6.66 32.37 5.28a86.72 86.72 0 0026.81-8.31c2.62-1.25 5.16-2.67 7.79-4.05-.23-.29-.31-.42-.42-.53a144.24 144.24 0 01-28.54-47.93c-5.22-14.47-7.18-29.47-7.34-44.77a136.78 136.78 0 015.6-41.21 212.83 212.83 0 019-23.42 4.29 4.29 0 00-.3-4A67.06 67.06 0 0187.42 71a81.9 81.9 0 012.37-27.49 85 85 0 0117-34.32 3.83 3.83 0 011-.78.91.91 0 011.32.52c.12.38.23.76.34 1.13a1 1 0 010 .16 155.31 155.31 0 00.93 21.34c1 7.71 4.25 14.43 8.54 20.75a14 14 0 002 2.22c3.39 3.23 7.65 4.69 12.07 5.78a1.42 1.42 0 001-.35 140.89 140.89 0 0126.64-17.88 125.72 125.72 0 0140.54-13.41A177.93 177.93 0 01223.92 27a139.78 139.78 0 0124.26 1.67c8.48 1.38 16.55 4.17 24.69 6.79C288 40.3 300.93 48 313.88 58l.09.09c2.56 2.71 4.94 2.57 8 1.32 4.66-1.94 8.81-4.42 11.12-9.14 1.25-2.54 2.44-5.13 3.46-7.77 3.79-9.82 4.66-20 4-30.44a17.79 17.79 0 010-2.63c.11-1.35.84-1.69 1.93-.87a13.15 13.15 0 012.17 2.05 76.94 76.94 0 0110.9 17.87 83.77 83.77 0 017.84 31.45c.15 6.07-.73 12.07-1.7 18.07a64.65 64.65 0 01-8.69 23.1c-1.3 2.16-1.83 3.88-.26 5.83a4.73 4.73 0 01.4.59c8.94 14.78 12.3 31.66 13.74 48.81.16 1.9.29 3.76.45 5.66z" fill="#fc4565"/><path d="M157.56 67.84h40.75L194.65 84h-22.56l-3.22 14.19h.24c16.24.56 25.66 8.22 21.81 25.12l-.07.33c-4.1 18-18.94 26.25-37.37 26.25h-14.56zm3.18 67.16c5.53-.34 10.37-3.49 12-10.7l.13-.56c1.71-7.55-1.31-10.82-7-10.82h-.37l-5 22.08zm48.97-67.16h37.47L243.52 84h-19.16l-3.82 16.78h17l-3.59 15.77H217l-4 17.18h19.52l-3.66 16.11h-37.79zm32.68 42.91l.87-3.83c6.53-28.72 22.41-39.87 37.44-39.87a23.17 23.17 0 0110.8 2.14l-3.9 17.12c-3-1.91-5.39-2.93-8.67-2.93-6.43 0-12.89 5-17.19 23.88l-.72 3.16c-4.48 19.71-.33 23.87 6.46 23.87 2.79 0 6.15-.9 10.22-2.81L274 147.7a27.85 27.85 0 01-13.52 2.93c-15.15 0-24.48-11.94-18.09-39.88zm-89.95 45.16h20.88l-6.79 35.59h-8.35l5.12-26.85h-4.18L154 191.5h-8.35zm39.38 35.59h-8.41l1-21.46-7.24 21.46h-8.24l13.74-35.71h9zm3.26-9.88l.22-1.14c1.52-8 5.24-11.27 9.53-11.27a6.93 6.93 0 014.1 1.33l.29-1.52c.64-3.35-.47-5.06-3.33-5.06a13.8 13.8 0 00-6.11 1.77l1.65-8.68a19.75 19.75 0 017.81-1.64c3.61 0 5.92 1.07 7.38 3 1.53 2.15 1.89 5.38 1 9.75l-4.45 23.3h-8.29l.65-3.42c-1.83 2.73-3.92 4.06-6.15 4.06-3.61.04-5.59-3.7-4.3-10.48zm11.73.32l1.06-5.57a3.5 3.5 0 00-1.82-.64c-1.43 0-2.38 1.4-2.9 4.12l-.23 1.2c-.57 3 .09 4 1.24 4s2.25-1.05 2.65-3.11zm18.69-17.29h-5l1.66-8.74h18.26l-1.67 8.74h-4.92l-5.13 26.85h-8.35zm17.81-8.74h8.35l-2.54 13.3h4.18l2.54-13.3h8.35l-6.79 35.59h-8.35l2.6-13.61h-4.18l-2.6 13.61h-8.35zm20.48 19.19l.51-2.66c2.18-11.4 7.68-17.16 14-17.16s9.6 5.76 7.43 17.16l-.51 2.66c-2.17 11.4-7.68 17.16-14 17.16s-9.6-5.76-7.43-17.16zm13.16 0l.52-2.72c1.21-6.33.85-8.93-.7-8.93s-2.89 2.6-4.1 8.93l-.52 2.72c-1.21 6.33-.9 8.93.7 8.93s2.9-2.6 4.15-8.93z"/><ellipse cx="311.03" cy="286.4" rx="87.6" ry="88.2" fill="#fff"/><path d="M311 208.63c43.39 0 78.49 34.9 78.43 77.91s-35.34 77.73-78.6 77.62-78.34-35-78.27-77.86 35.27-77.7 78.44-77.67zm-48.16 42.15c-16.75 21.31-17.59 56.72 7.51 79.57 24.91 22.69 58.46 18.06 76.3 3.95zm96.4 71.28c.48-.63.78-1 1-1.38 10-14.58 13.23-30.52 9.34-47.73a59.84 59.84 0 00-47.77-45.28 60.64 60.64 0 00-30.95 2.43 59.92 59.92 0 00-14.79 7.62c-.7.49-.81.85-.13 1.44s1.42 1.39 2.12 2.08l75.93 75.5c1.78 1.71 3.45 3.45 5.28 5.32z" fill="#ed2626"/></svg>