<svg xmlns="http://www.w3.org/2000/svg" viewBox="0 0 283.2 283.2"><path d="M141.6 0a141.6 141.6 0 10141.6 141.6A141.6 141.6 0 00141.6 0zm-35.9 102.9a126 126 0 01-9.35 21c-2.06 3.59-3.77 7.41-6.47 10.57-5 5.9-10.08 11.84-16.58 16.2A55.5 55.5 0 0163 156.6a8.28 8.28 0 01-9-1.32c-2.23-1.88-2.48-5.17-1.53-8.18a13.93 13.93 0 012.83-4.81c6.17-7.29 9.57-15.95 11.35-25.29 1.85-9.65 2.16-19.42 2.2-29.21a32.65 32.65 0 01.24-6.09 7.12 7.12 0 013.67-5.3c2.94-1.58 5.83-3.2 9.22-3.77 2.31-.38 3.25-1.85 3.43-4.51V66.2a18 18 0 00-.41-4.38c-.46-2.13.12-3.67 1.57-4.52a5.41 5.41 0 015.74.26 4.34 4.34 0 011.48 3.51 18.74 18.74 0 01-.79 6.86 11.18 11.18 0 00-.64 3.38 2.19 2.19 0 001.76 2.4c2 .53 4 .78 5.79 1.79a16 16 0 018.28 11.92c.81 5.36-.74 10.5-2.49 15.48z" fill="#12403d"/><path d="M157.44 62.79a14.86 14.86 0 01-.92 5.32 8.76 8.76 0 00-.71 3.39 2.59 2.59 0 002.31 2.85h.27A15.64 15.64 0 01172 91.8v.25a60.89 60.89 0 01-5.16 17.4c-3.39 7.72-6.68 15.56-11.63 22.41-6 8.28-12.93 15.75-21.95 21-2.82 1.63-5.56 3.33-8.86 3.76a9.67 9.67 0 01-3.22-.07 5.75 5.75 0 01-5-5.76 9.15 9.15 0 011.08-5 35.73 35.73 0 014.27-6.22c4-4.64 6.25-10.07 7.81-15.88a133.69 133.69 0 003.4-18.62c.54-4.45.28-9 .46-13.42.12-2.76.08-5.52.13-8.28a7.74 7.74 0 013.84-6.79 24.56 24.56 0 018.81-3.65 4.35 4.35 0 003.87-4.22 22.7 22.7 0 00-.16-4.66c-.09-1.36-.16-2.72-.22-4.07a2.72 2.72 0 011.88-2.77 4.06 4.06 0 015.42 1.79 4.13 4.13 0 01.41 1.32 11 11 0 01.26 2.47z" fill="#ec2727"/><path d="M136.6 98.14c0-2.56-.32-5-.39-7.33a14.56 14.56 0 016.48-13c.81-.57 1.69-.77 2.43.19s.62 1.65-.26 2.63c-2.58 2.89-4.75 5.93-4.85 10.1-.08 3.15-.16 6.3-.32 9.45a7 7 0 01-.42 2.22c-.25.64-.6 1.17-1.4 1a1.42 1.42 0 01-1.31-1.47 32 32 0 00.04-3.79z" fill="#fef9f9"/><path d="M153 66.42a3.81 3.81 0 01-1.66-2.42 9.36 9.36 0 01-.19-4.73c.06-.28.15-.57.44-.66s.6.15.8.4a3.23 3.23 0 01.42.72 12.82 12.82 0 01.19 6.69z" fill="#fdf2f2"/><path d="M218.21 62.89a13 13 0 00-.35-3.23c-.45-2-2.29-3-4.68-2.75a3.1 3.1 0 00-3 3.53 31.17 31.17 0 00.19 3.47 26.22 26.22 0 01.33 4.09c-.12 2.93-1.44 4.47-4.3 5a24.55 24.55 0 00-8.85 3.84 7.61 7.61 0 00-3.48 6.5c-.06 3.52-.1 7-.19 10.55s0 7-.35 10.43a127.2 127.2 0 01-3.4 19.46c-1.52 5.66-3.73 11-7.54 15.49a44.19 44.19 0 00-4.27 6.07 10.31 10.31 0 00-1.35 4.43 6.06 6.06 0 005.16 6.84h.47a10.52 10.52 0 002.63 0c3.25-.45 6-2.11 8.74-3.72 9-5.23 16-12.65 22-21 5.29-7.39 8.86-15.8 12.39-24.17a57.46 57.46 0 004.34-15 17.23 17.23 0 00-3.94-13.54 13.84 13.84 0 00-9.38-4.78c-2-.26-2.7-1-2.71-3.07a7.92 7.92 0 01.61-3 13.64 13.64 0 00.93-5.44z" fill="#fefefe"/><path d="M218.21 62.89a13.73 13.73 0 01-.94 5.38 7.92 7.92 0 00-.61 3c0 2 .7 2.81 2.71 3.07a13.84 13.84 0 019.38 4.78 17.24 17.24 0 013.95 13.59 57.66 57.66 0 01-4.37 15c-3.53 8.37-7.1 16.78-12.39 24.17-5.95 8.32-12.93 15.74-22 21-2.78 1.61-5.49 3.27-8.74 3.72a10.52 10.52 0 01-2.63.05 6.07 6.07 0 01-5.68-6.42c0-.16 0-.31.05-.47a10.31 10.31 0 011.35-4.43 44.19 44.19 0 014.27-6.07c3.81-4.53 6-9.83 7.54-15.49a127.2 127.2 0 003.4-19.46c.37-3.45.27-7 .35-10.43s.13-7 .19-10.55a7.61 7.61 0 013.48-6.5 24.55 24.55 0 018.85-3.83c2.86-.54 4.18-2.08 4.3-5a26.22 26.22 0 00-.28-4.06c-.13-1.16-.17-2.32-.19-3.47 0-2.09 1-3.29 3-3.53 2.39-.29 4.23.78 4.68 2.75a12.87 12.87 0 01.33 3.2zm-20.83 38.6a1.53 1.53 0 001.35 1.9c1.06.15 1.26-.65 1.48-1.4a9.4 9.4 0 00.22-1.29 71.11 71.11 0 00.22-7.3c0-4.22.82-8.17 3.78-11.41.48-.53 1-1.07 1.44-1.59a1.57 1.57 0 00.28-2.06c-.69-1.22-1.65-1.35-3-.32a14.73 14.73 0 00-6.09 13.44 86 86 0 01.32 10.03zm16.76-38.15a11.22 11.22 0 00-.32-3c-.23-.71-.42-1.73-1.26-1.69s-.69 1.13-.75 1.77a7.71 7.71 0 001.19 5.29c.15.22.32.52.64.45s.38-.42.41-.67c.08-.72.09-1.44.13-2.15z" fill="#ec2727"/><path d="M197.38 101.49a85.53 85.53 0 00-.32-10 14.73 14.73 0 016.09-13.44c1.35-1 2.31-.9 3 .32a1.57 1.57 0 01-.28 2.06c-.49.52-1 1.06-1.44 1.59-3 3.24-3.73 7.19-3.78 11.41a71.11 71.11 0 01-.22 7.3 9.4 9.4 0 01-.22 1.29c-.22.75-.47 1.54-1.48 1.4a1.58 1.58 0 01-1.35-1.93zm16.76-38.15a19.2 19.2 0 01-.13 2.14c0 .25-.09.6-.41.67s-.49-.23-.64-.45a7.79 7.79 0 01-1.15-5.24c.06-.64-.15-1.72.75-1.77s1 1 1.26 1.69a11.34 11.34 0 01.32 2.96z" fill="#fef9f9"/><path d="M123.13 157.9a8.86 8.86 0 01-3.92-.83 8.49 8.49 0 01-3.68-2.86 8.29 8.29 0 01-.79-1.61 9.16 9.16 0 01-.62-2.88V149a8.73 8.73 0 01.72-4c1.32-3 3.6-5.36 5.61-7.87a35.8 35.8 0 006.83-14.49c.63-2.67 1.43-5.3 2-8a52.26 52.26 0 001-7.16c.28-4 .38-8 .5-12 .12-3.77.23-7.54.23-11.32 0-4.74 2.46-8.87 7.13-10.09 2-.53 3.94-1.23 5.9-1.87 2.52-.82 3.39-2.11 3.43-4.79a27 27 0 00-.71-6.52c-.82-3.39 1-5 4.06-5.78a2.24 2.24 0 01.52-.06h3.3a2.48 2.48 0 01.54.06c3.07 1.25 5.46 2.67 5.12 7.06-.22 2.81-.11 5.61-1.56 8.18-.46.8.09 1.42.74 1.84a4.18 4.18 0 001.48.61 17.53 17.53 0 016.19 2.64 13.2 13.2 0 015.12 5.94c.37.89.7 1.8 1 2.72a3.65 3.65 0 01.17.81 41.57 41.57 0 01.58 8.7 5.73 5.73 0 01-.07.58c-.27 1.39-.39 2.83-.78 4.19-.73 2.52-1.45 5.06-2.43 7.5-1.28 3.19-2.75 6.31-4.25 9.41-1.62 3.38-3.28 6.75-5.08 10a87.48 87.48 0 01-4 6.62 58.91 58.91 0 01-4.29 5.54 102.73 102.73 0 01-7.93 8.76 95.45 95.45 0 01-9.49 7.12 43.17 43.17 0 01-7.22 3.94 8 8 0 01-2.86.59zm10.1-72.9v.62c0 2.83-.13 5.6-.12 8.43a86.8 86.8 0 01-.92 14.94c-.78 4.59-1 9.21-2.32 13.73a51.71 51.71 0 01-8.35 17.21c-1.93 2.52-4.11 4.3-4.58 7.62-.26 1.82-.52 3.81.77 5.34 2.22 2.63 5 3.66 8.34 2.61a33.86 33.86 0 005-2.32 57.91 57.91 0 0015.39-11.58c1.5-1.57 2.92-3.22 4.39-4.82.92-1 1.9-2 2.77-3.06 3.34-4.1 5.56-8.88 8-13.51 2-3.75 3.57-7.7 5.28-11.59a58 58 0 004.7-15.88c.53-4.11 0-7.89-2.46-11.29-1.6-2.22-3.22-4.46-6-5.43a43.67 43.67 0 00-5.38-1.47c-1.82-.36-2.3-2.8-1.89-4.5.69-2.91 1.74-4.86 1.53-7.93-.17-2.52-1-3.75-3.38-4.37-3.05-.78-5.06 1.72-4.37 4.77a18.42 18.42 0 010 7.54 4.1 4.1 0 01-3.41 3.3 24.25 24.25 0 00-8.52 3.35 11.89 11.89 0 00-2.94 2.34c-1.41 1.73-1.41 3.81-1.53 5.95zM184 157.9a8.88 8.88 0 01-3.93-.83 8.64 8.64 0 01-3.68-2.86 10 10 0 01-1.41-4.49V149a8.73 8.73 0 01.72-4c1.32-3 3.6-5.36 5.62-7.87a35.78 35.78 0 006.82-14.49c.63-2.67 1.43-5.3 2-8a55.55 55.55 0 001-7.16c.27-4 .37-8 .49-12 .12-3.77.23-7.54.23-11.32 0-4.74 2.46-8.87 7.13-10.09 2-.53 3.94-1.23 5.9-1.87 2.52-.82 3.39-2.11 3.43-4.79a27 27 0 00-.71-6.52c-.82-3.39 1-5 4.06-5.78a2.33 2.33 0 01.53-.06h3.29a2.48 2.48 0 01.54.06c3.07 1.25 5.46 2.67 5.12 7.06-.22 2.81-.11 5.61-1.56 8.18-.46.8.09 1.42.74 1.84a4.18 4.18 0 001.48.61 17.53 17.53 0 016.19 2.62 13.1 13.1 0 015.12 5.94c.37.89.7 1.8 1 2.72a3.16 3.16 0 01.17.81 41.57 41.57 0 01.58 8.7 5.73 5.73 0 01-.07.58c-.27 1.39-.39 2.83-.78 4.19-.73 2.52-1.45 5.06-2.43 7.5-1.28 3.19-2.75 6.31-4.24 9.41-1.63 3.38-3.29 6.75-5.09 10a87.48 87.48 0 01-4 6.62 59 59 0 01-4.3 5.54 102.73 102.73 0 01-7.93 8.76 95.46 95.46 0 01-9.52 7.08 43.17 43.17 0 01-7.22 3.94 8 8 0 01-2.86.59zM194.06 85v.62c0 2.83-.13 5.6-.12 8.43A86.8 86.8 0 01193 109c-.78 4.59-1 9.21-2.32 13.73a51.71 51.71 0 01-8.35 17.21c-1.93 2.52-4.11 4.3-4.58 7.62-.26 1.82-.52 3.81.77 5.34 2.22 2.63 5 3.66 8.34 2.61a33.86 33.86 0 005-2.32 57.91 57.91 0 0015.39-11.58c1.5-1.57 2.93-3.22 4.39-4.82.92-1 1.9-2 2.77-3.06 3.34-4.1 5.57-8.88 8-13.51 2-3.75 3.57-7.7 5.28-11.59a58 58 0 004.7-15.88c.53-4.11 0-7.89-2.46-11.29-1.58-2.23-3.2-4.46-5.93-5.46a43.52 43.52 0 00-5.37-1.47c-1.83-.36-2.3-2.8-1.9-4.5.69-2.91 1.74-4.86 1.53-7.93-.17-2.52-1-3.75-3.38-4.37-3-.78-5.06 1.72-4.37 4.77a18.42 18.42 0 010 7.54 4.1 4.1 0 01-3.41 3.3 24.23 24.23 0 00-8.54 3.35 11.89 11.89 0 00-2.94 2.34c-1.44 1.75-1.44 3.83-1.56 5.97zM59.25 157.9a8.88 8.88 0 01-3.93-.83 8.64 8.64 0 01-3.68-2.86 9.61 9.61 0 01-.79-1.61 9.16 9.16 0 01-.62-2.88V149a8.73 8.73 0 01.72-4c1.32-3 3.6-5.36 5.62-7.87a35.78 35.78 0 006.82-14.49c.63-2.67 1.43-5.3 2-8a55.55 55.55 0 001-7.16c.27-4 .37-8 .49-12 .12-3.77.23-7.54.23-11.32 0-4.74 2.46-8.87 7.13-10.09 2-.53 3.94-1.23 5.9-1.87 2.52-.82 3.39-2.11 3.43-4.79a27 27 0 00-.71-6.52c-.82-3.39 1-5 4.06-5.78a2.24 2.24 0 01.52-.06h3.26a2.48 2.48 0 01.54.06c3.07 1.25 5.46 2.67 5.12 7.06-.22 2.81-.11 5.61-1.56 8.18-.46.8.09 1.42.74 1.84a4.18 4.18 0 001.48.61 17.53 17.53 0 016.19 2.64 13.1 13.1 0 015.12 5.94c.37.89.7 1.8 1 2.72a3.16 3.16 0 01.17.81 41.57 41.57 0 01.58 8.7 5.73 5.73 0 01-.07.58c-.27 1.39-.39 2.83-.78 4.19-.73 2.52-1.45 5.06-2.43 7.5-1.28 3.19-2.75 6.31-4.24 9.41-1.63 3.38-3.29 6.75-5.09 10a87.48 87.48 0 01-4 6.62 59 59 0 01-4.3 5.54 102.73 102.73 0 01-7.93 8.76 95.46 95.46 0 01-9.52 7.08 43.17 43.17 0 01-7.22 3.94 8 8 0 01-2.86.59zM69.34 85v.62c0 2.83-.13 5.6-.12 8.43A86.8 86.8 0 0168.3 109c-.78 4.59-1 9.21-2.32 13.73a51.71 51.71 0 01-8.35 17.21c-1.93 2.52-4.11 4.3-4.58 7.62-.26 1.82-.52 3.81.77 5.34 2.22 2.63 5 3.66 8.34 2.61a33.86 33.86 0 005-2.32 57.91 57.91 0 0015.39-11.59c1.5-1.57 2.93-3.22 4.39-4.82.92-1 1.9-2 2.77-3.06 3.34-4.1 5.57-8.88 8-13.51 2-3.75 3.57-7.7 5.28-11.59a57.84 57.84 0 004.71-15.91c.53-4.11 0-7.89-2.46-11.29-1.6-2.22-3.22-4.46-6-5.43a43.52 43.52 0 00-5.37-1.47c-1.83-.36-2.3-2.8-1.9-4.5.69-2.91 1.74-4.86 1.53-7.93-.17-2.52-1-3.75-3.38-4.37-3-.78-5.06 1.72-4.37 4.77a18.42 18.42 0 010 7.54 4.1 4.1 0 01-3.41 3.3 24.4 24.4 0 00-8.5 3.38 11.89 11.89 0 00-2.94 2.34c-1.44 1.73-1.44 3.81-1.56 5.95zM54.82 191.13h9.52l-1 4c2.23-2.58 4.63-4.57 8-4.57s4.72 1.78 5.36 4.15c2-2.1 4.67-4.15 8.08-4.15 4.4 0 6.77 3.13 5.37 8.67L83.7 225h-9.58l6-23.53c.47-1.86 0-3-1.41-3s-2.52 1.15-3 3l-6 23.53h-9.52l6-23.53c.47-1.86 0-3-1.41-3s-2.52 1.15-3 3l-6 23.53h-9.51zm38.35 17.94l.47-1.87c2.74-10.83 9.6-16.67 16.44-16.67s9.91 5.72 7.07 17l-1.15 4.39h-14.08c-.57 4.34 1.17 5.78 4 5.78 2.56 0 5-1 7.78-2.47l-1.4 7.89a21.18 21.18 0 01-9.85 2.59c-7.69 0-12.03-5.71-9.28-16.64zm15.53-3.31c1.4-5.54 1.06-7.59-.58-7.59s-3 1.75-4.68 7.59zm13 3.95l.82-3.25c3.12-12.34 7.76-15.89 12.16-15.89 3.48 0 4.74 2.29 5.53 4.63l3.68-14.56h9.59L142.27 225h-9.59l1-4.09c-2 2.41-4.4 4.7-7.88 4.7-4.41-.05-7.26-3.61-4.1-15.9zm14.91 0l.81-3.19c1.32-5.24 1.07-7.89-.71-7.89s-3.29 2.65-4.62 7.89l-.8 3.19c-1.32 5.23-1.12 7.82.65 7.82s3.31-2.63 4.63-7.82zm20.73-18.58h9.59L158.39 225h-9.59zm2.53-10.53h9.83l-2 7.88h-9.79zm6.83 36.4l6.54-25.88h9.59l-6 23.59c-.47 1.87.11 3 1.42 3s2.57-1.08 3-3l6-23.59h9.59L188.29 225h-9.59l1-4c-2.12 2.41-4.57 4.58-8 4.58-4.86-.02-6.28-3.52-5-8.58zm36.62-25.87h9.52l-1 4c2.23-2.58 4.64-4.57 8-4.57s4.73 1.81 5.39 4.15c2-2.1 4.66-4.15 8.07-4.15 4.41 0 6.77 3.13 5.37 8.67L232.16 225h-9.53l6-23.53c.47-1.86 0-3-1.41-3s-2.52 1.15-3 3L218.27 225h-9.57l6-23.56c.47-1.86 0-3-1.41-3s-2.52 1.15-3 3L204.35 225h-9.53z" fill="#fff"/></svg>